<svg xmlns="http://www.w3.org/2000/svg" xmlns:xlink="http://www.w3.org/1999/xlink" viewBox="0 0 991.52 946.51"><defs><style>.cls-1{fill:#e2dad0;}.cls-2,.cls-23,.cls-24,.cls-32{stroke:#f0eee6;}.cls-2,.cls-20,.cls-21,.cls-22,.cls-23,.cls-24,.cls-27,.cls-28,.cls-32,.cls-33,.cls-34,.cls-38,.cls-39,.cls-46,.cls-56,.cls-57,.cls-60,.cls-85{stroke-miterlimit:10;}.cls-2,.cls-23{stroke-width:7px;}.cls-3{fill:#aaceff;}.cls-4{fill:#999;}.cls-5{fill:#b3b3b3;}.cls-6{fill:#ccc;}.cls-7{fill:#d4f5ff;}.cls-8{fill:gray;}.cls-9{fill:#665443;}.cls-10{fill:#99be9b;}.cls-11{fill:#333d29;}.cls-12{fill:#344e41;}.cls-13{fill:#606c38;}.cls-14{fill:#81ad6d;}.cls-15{fill:#082a00;}.cls-16{fill:#656d4a;}.cls-17{fill:#dadada;}.cls-18{fill:#c2c2c2;}.cls-19{fill:#868686;}.cls-20,.cls-22,.cls-23,.cls-24,.cls-25,.cls-32,.cls-33,.cls-34,.cls-38,.cls-39,.cls-46,.cls-56,.cls-57,.cls-60,.cls-85{fill:none;}.cls-20{stroke:#333;stroke-width:1.19px;}.cls-21,.cls-73{fill:#4d4d4d;}.cls-21,.cls-22{stroke:#4d4d4d;}.cls-21{stroke-width:0.6px;}.cls-22{stroke-width:0.35px;}.cls-24{stroke-width:6.74px;}.cls-26{fill:#6a3334;}.cls-27{fill:#340001;stroke-width:0.58px;}.cls-27,.cls-28{stroke:#340001;}.cls-28{fill:#440e0f;stroke-width:0.14px;}.cls-29{fill:#230001;}.cls-30{fill:#c46f72;}.cls-31{fill:#525266;}.cls-32{stroke-width:4.57px;}.cls-33,.cls-34,.cls-56,.cls-57{stroke:#000;}.cls-34{stroke-width:2.09px;}.cls-35{fill:#262222;}.cls-36{fill:#b8b7b5;}.cls-37{fill:#99a9e3;}.cls-38,.cls-39{stroke:#fff;}.cls-39,.cls-57,.cls-60{stroke-width:0.5px;}.cls-40{fill:#740c10;}.cls-41{fill:#fff;}.cls-42{fill:#70a4cb;}.cls-43{fill:#00012e;}.cls-44{fill:#ffe15c;}.cls-45{fill:#7e0d25;}.cls-46{stroke:#3d3545;}.cls-46,.cls-85{stroke-width:2px;}.cls-47{fill:#3d3545;}.cls-48{fill:#a38161;}.cls-49{fill:#baa188;}.cls-50{fill:#6d5945;}.cls-51{fill:#77383a;}.cls-52{fill:#f4e9d6;}.cls-53{fill:#275187;}.cls-54{fill:#7ebdc9;}.cls-55{fill:#e5ca8f;}.cls-56{stroke-width:0.25px;}.cls-58{fill:#555760;}.cls-59{fill:#f2e58e;}.cls-60{stroke:#74520b;}.cls-61{fill:#e9ceb0;}.cls-62{fill:#bcb4a9;}.cls-63{fill:#fdeb97;}.cls-64{fill:#74520b;}.cls-65{fill:#0f002e;}.cls-66{fill:#eb6660;}.cls-67{fill:#3300d0;}.cls-68{fill:#7acdf4;}.cls-69{fill:#ebc800;}.cls-70{fill:#1f005c;}.cls-71{fill:#5c003e;}.cls-72{fill:#171600;}.cls-74{fill:#2c6396;}.cls-75{fill:#4cc4a5;}.cls-76{fill:#e3b9b4;}.cls-77{fill:#3a1d5e;}.cls-78{fill:#363973;}.cls-79{fill:#8a70e6;}.cls-80{fill:#6358d0;}.cls-81{fill:#f6af9b;}.cls-82{fill:#93d4f5;}.cls-83{fill:#f5b7ae;}.cls-84{fill:#33143a;}.cls-85{stroke:#754c24;}.cls-86{font-size:5.59px;font-family:MyriadPro-Regular, Myriad Pro;}.cls-87{fill:#d4c97c;}.cls-88{fill:#9a0f27;}.cls-89{fill:#b9c0e1;}</style><image id="image" width="512" height="512" xlink:href="../../../../belkagid/BelkaGid/djangoProject/static/img/%D0%B1%D0%B5%D0%BB%D0%BA%D0%B0.png"/><image id="image-2" width="512" height="512" xlink:href="C:%5CUsers%5Cannna%5CDownloads%5Cfree-icon-rubber-duck-3958506.png"/></defs><g id="Layer_2" data-name="Layer 2"><g id="Layer_1-2" data-name="Layer 1"><path class="cls-1" d="M507.18,868.64l-10.07-53.4-2-28.09,15,.55,12.45-67.6,23,1.83,5.23-33.83-16.45-15.6,9.48-40.69,21,.76c3,.11,15.77,6.58,15.77,6.58l14.75-20.48L611,600.91l-13.42-19.18,14.59-13,35.17-7.24L661.61,583l23.73,7.86,6.67,9.25,60.4-9.82,13.34,18.49-.84,23,26.81,6,50.61,66.88-14,26.51,90.18,24.27,44.37-9.4.92-25.4L932,715.9l-4.34-18.16L944,689.32l18.34-64.38,6.61-44.44L991.52,564l-26.87-32-2.22-49.12-12-26.45L883.73,473l59.21-59.9-97-84.56L858.26,292,793.43,258.6,774.9,272.93,569.31,119.4,547.68,78.59l-12-25.45-33.45,11.8L434.33,33.46S399.51.18,394.52,0s-34.38,9.77-34.38,9.77L341,14.08l-9.9,24.65,3.6,11.14L301.18,90.69l-72.83,16.82-39,23h-33l-31,34-35,28-29,31-8,19L54,284.88l13.28,75.53-32,26.86-22.35,9.19L24,562,0,726.21l31.94,85.21,41.66-17.5,4.68,19.18,35.61,1.29,29.89,31.1,58.18-3.9,31.36,18.15s52.59-15.11,58.44-10.9-2,55.59-2,55.59l58.33,19.5,1.21-33.45s82.57,27.47,84,36.53.07-.5.07-.5l8,14,7,6,4-13,9-21,12-6,31-15s14.79,5,15-1,3-17,3-17"/><line class="cls-2" x1="514.26" y1="89.1" x2="289.26" y2="485.1"/><path class="cls-3" d="M538.83,435.63S568.65,419.51,614,432s85.87,11.15,96.61,17.06,45.81,11.16,18.73,18.37-68.95,2.63-98.71,3-50-8.21-70.3-8.21-58.44.66-79.91-5.9-52.76-14.44-56.79-16.41-23.12-12.74,10.87-12.6,13.71-5.77,59,1.45S538.83,435.63,538.83,435.63Z"/><path class="cls-3" d="M73.12,567.15S61.3,580.6,68.69,586.72s4.43,24.45,7.38,30.57,26.58,22,34,19.56S151.39,632,147,624.62s-5.91-31.79-13.29-42.79,7.38-17.12-14.77-23.23-34-28.13-42.83-8.56S73.12,567.15,73.12,567.15Z"/><path class="cls-3" d="M832.23,411.91s-8.56,11.71-3.21,17,3.21,21.29,5.35,26.62,19.27,19.16,24.62,17,30-4.26,26.75-10.65-4.28-27.67-9.63-37.25,5.35-14.91-10.7-20.23-24.62-24.48-31-7.45S832.23,411.91,832.23,411.91Z"/><polyline class="cls-4" points="680.57 380.2 685.66 375.29 688.26 341.55 682.7 347.88 680.57 380.89"/><polygon class="cls-5" points="542.39 337.99 683.05 348.3 688.26 341.55 550.79 332.1 542.39 337.99"/><polygon class="cls-4" points="546.18 375.1 543.54 374.91 543.95 368.5 546.6 368.69 546.18 375.1"/><polygon class="cls-4" points="552.18 375.1 549.54 374.91 549.95 368.5 552.6 368.69 552.18 375.1"/><polygon class="cls-4" points="563.26 376.1 560.48 375.91 560.87 369.85 563.65 370.04 563.26 376.1"/><polygon class="cls-4" points="568.26 376.1 565.68 375.92 566.08 369.85 568.66 370.03 568.26 376.1"/><polygon class="cls-4" points="573.26 377.1 570.82 376.93 571.28 369.85 573.73 370.02 573.26 377.1"/><polygon class="cls-4" points="578.26 377.1 576.02 376.94 576.49 369.85 578.72 370.01 578.26 377.1"/><polygon class="cls-4" points="590.26 378.1 587.76 377.93 588.2 371.2 590.7 371.37 590.26 378.1"/><polygon class="cls-4" points="595.26 378.1 592.76 377.93 593.2 371.2 595.7 371.37 595.26 378.1"/><polygon class="cls-4" points="600.26 378.1 597.76 377.93 598.2 371.2 600.7 371.37 600.26 378.1"/><polygon class="cls-4" points="605.19 379.17 602.69 378.99 603.2 371.2 605.7 371.38 605.19 379.17"/><polygon class="cls-4" points="631.19 380.17 628.69 379.99 629.2 372.2 631.7 372.38 631.19 380.17"/><polygon class="cls-4" points="642.19 381.17 639.69 380.99 640.2 373.2 642.7 373.38 642.19 381.17"/><polygon class="cls-4" points="647.19 381.17 644.69 380.99 645.2 373.2 647.7 373.38 647.19 381.17"/><polygon class="cls-4" points="652.19 382.17 649.69 381.99 650.2 374.2 652.7 374.38 652.19 382.17"/><polygon class="cls-4" points="670.19 383.17 667.69 382.99 668.2 375.2 670.7 375.38 670.19 383.17"/><polygon class="cls-4" points="658.19 382.17 655.69 381.99 656.2 374.2 658.7 374.38 658.19 382.17"/><polygon class="cls-4" points="676.19 383.17 673.69 382.99 674.2 375.2 676.7 375.38 676.19 383.17"/><polygon class="cls-4" points="626.19 380.17 623.69 379.99 624.2 372.2 626.7 372.38 626.19 380.17"/><polygon class="cls-4" points="616.26 379.1 613.9 378.94 614.23 373.9 616.59 374.06 616.26 379.1"/><polygon class="cls-4" points="621.26 380.1 619.03 379.94 619.43 373.9 621.66 374.05 621.26 380.1"/><polygon class="cls-6" points="680.53 380.27 540.26 370.3 542.39 337.99 682.67 347.95 680.53 380.27"/><polygon class="cls-7" points="681.75 359.09 542.55 349.2 542.76 346.05 681.96 355.94 681.75 359.09"/><polygon class="cls-7" points="680.45 368.54 542.55 358.74 542.76 355.5 680.67 365.3 680.45 368.54"/><polygon class="cls-8" points="567.24 332.58 562.03 338.85 558.13 372.59 555.52 372.59 558.72 338.1 563.56 332.29 567.24 332.58"/><polygon class="cls-8" points="593.26 335.28 588.06 341.55 584.15 375.29 581.55 375.29 584.75 340.8 589.59 334.98 593.26 335.28"/><polygon class="cls-8" points="620.59 336.63 615.39 342.9 611.48 376.64 608.88 376.64 612.08 342.15 616.91 336.33 620.59 336.63"/><polygon class="cls-8" points="645.32 339.33 640.11 345.6 636.21 379.34 633.61 379.34 636.8 344.85 641.64 339.03 645.32 339.33"/><polygon class="cls-8" points="675.25 340.68 670.04 346.95 666.14 380.69 663.53 380.69 666.73 346.2 671.57 340.38 675.25 340.68"/><rect class="cls-9" x="912.14" y="486.48" width="5.63" height="20.63" rx="1.5"/><circle class="cls-10" cx="909.32" cy="491.16" r="4.69"/><circle class="cls-10" cx="911.2" cy="485.54" r="4.69"/><circle class="cls-10" cx="914.95" cy="481.79" r="4.69"/><circle class="cls-10" cx="918.7" cy="487.41" r="4.69"/><circle class="cls-10" cx="916.82" cy="491.16" r="4.69"/><circle class="cls-10" cx="920.57" cy="493.04" r="4.69"/><rect class="cls-9" x="670.14" y="250.48" width="5.63" height="20.63" rx="1.5"/><circle class="cls-11" cx="667.32" cy="255.16" r="4.69"/><circle class="cls-11" cx="669.2" cy="249.54" r="4.69"/><circle class="cls-11" cx="672.95" cy="245.79" r="4.69"/><circle class="cls-11" cx="676.7" cy="251.41" r="4.69"/><circle class="cls-11" cx="674.82" cy="255.16" r="4.69"/><circle class="cls-11" cx="678.57" cy="257.04" r="4.69"/><rect class="cls-9" x="665.14" y="215.48" width="5.63" height="20.63" rx="1.5"/><circle class="cls-12" cx="662.32" cy="220.16" r="4.69"/><circle class="cls-12" cx="664.2" cy="214.54" r="4.69"/><circle class="cls-12" cx="667.95" cy="210.79" r="4.69"/><circle class="cls-12" cx="671.7" cy="216.41" r="4.69"/><circle class="cls-12" cx="669.82" cy="220.16" r="4.69"/><circle class="cls-12" cx="673.57" cy="222.04" r="4.69"/><rect class="cls-9" x="711.14" y="265.48" width="5.63" height="20.63" rx="1.5"/><circle class="cls-13" cx="708.32" cy="270.16" r="4.69"/><circle class="cls-13" cx="710.2" cy="264.54" r="4.69"/><circle class="cls-13" cx="713.95" cy="260.79" r="4.69"/><circle class="cls-13" cx="717.7" cy="266.41" r="4.69"/><circle class="cls-13" cx="715.82" cy="270.16" r="4.69"/><circle class="cls-13" cx="719.57" cy="272.04" r="4.69"/><rect class="cls-9" x="635.14" y="234.48" width="5.63" height="20.63" rx="1.5"/><circle class="cls-13" cx="632.32" cy="239.16" r="4.69"/><circle class="cls-13" cx="634.2" cy="233.54" r="4.69"/><circle class="cls-13" cx="637.95" cy="229.79" r="4.69"/><circle class="cls-13" cx="641.7" cy="235.41" r="4.69"/><circle class="cls-13" cx="639.82" cy="239.16" r="4.69"/><circle class="cls-13" cx="643.57" cy="241.04" r="4.69"/><rect class="cls-9" x="698.14" y="238.48" width="5.63" height="20.63" rx="1.5"/><circle class="cls-10" cx="695.32" cy="243.16" r="4.69"/><circle class="cls-10" cx="697.2" cy="237.54" r="4.69"/><circle class="cls-10" cx="700.95" cy="233.79" r="4.69"/><circle class="cls-10" cx="704.7" cy="239.41" r="4.69"/><circle class="cls-10" cx="702.82" cy="243.16" r="4.69"/><circle class="cls-10" cx="706.57" cy="245.04" r="4.69"/><rect class="cls-9" x="616.14" y="198.48" width="5.63" height="20.63" rx="1.5"/><circle class="cls-10" cx="613.32" cy="203.16" r="4.69"/><circle class="cls-10" cx="615.2" cy="197.54" r="4.69"/><circle class="cls-10" cx="618.95" cy="193.79" r="4.69"/><circle class="cls-10" cx="622.7" cy="199.41" r="4.69"/><circle class="cls-10" cx="620.82" cy="203.16" r="4.69"/><circle class="cls-10" cx="624.57" cy="205.04" r="4.69"/><circle class="cls-14" cx="926.61" cy="521.01" r="3.91"/><rect class="cls-9" x="924.27" y="524.91" width="4.69" height="17.19" rx="1.25"/><circle class="cls-14" cx="921.92" cy="528.82" r="3.91"/><circle class="cls-14" cx="923.49" cy="524.13" r="3.91"/><circle class="cls-14" cx="929.74" cy="525.7" r="3.91"/><circle class="cls-14" cx="928.17" cy="528.82" r="3.91"/><circle class="cls-14" cx="931.3" cy="530.38" r="3.91"/><rect class="cls-9" x="945.52" y="503.12" width="5.41" height="19.83" rx="1.44"/><circle class="cls-15" cx="942.82" cy="507.62" r="4.51"/><circle class="cls-15" cx="944.62" cy="502.21" r="4.51"/><circle class="cls-15" cx="948.23" cy="498.61" r="4.51"/><circle class="cls-15" cx="951.83" cy="504.02" r="4.51"/><circle class="cls-15" cx="950.03" cy="507.62" r="4.51"/><circle class="cls-15" cx="953.63" cy="509.43" r="4.51"/><rect class="cls-9" x="59.14" y="555.48" width="5.63" height="20.63" rx="1.5"/><circle class="cls-15" cx="56.32" cy="560.16" r="4.69"/><circle class="cls-15" cx="58.2" cy="554.54" r="4.69"/><circle class="cls-15" cx="61.95" cy="550.79" r="4.69"/><circle class="cls-15" cx="65.7" cy="556.41" r="4.69"/><circle class="cls-15" cx="63.82" cy="560.16" r="4.69"/><circle class="cls-15" cx="67.57" cy="562.04" r="4.69"/><rect class="cls-9" x="42.14" y="572.48" width="5.63" height="20.63" rx="1.5"/><circle class="cls-11" cx="39.32" cy="577.16" r="4.69"/><circle class="cls-11" cx="41.2" cy="571.54" r="4.69"/><circle class="cls-11" cx="44.95" cy="567.79" r="4.69"/><circle class="cls-11" cx="48.7" cy="573.41" r="4.69"/><circle class="cls-11" cx="46.82" cy="577.16" r="4.69"/><circle class="cls-11" cx="50.57" cy="579.04" r="4.69"/><rect class="cls-9" x="280.14" y="685.48" width="5.63" height="20.63" rx="1.5"/><circle class="cls-16" cx="277.32" cy="690.16" r="4.69"/><circle class="cls-16" cx="279.2" cy="684.54" r="4.69"/><circle class="cls-16" cx="282.95" cy="680.79" r="4.69"/><circle class="cls-16" cx="286.7" cy="686.41" r="4.69"/><circle class="cls-16" cx="284.82" cy="690.16" r="4.69"/><circle class="cls-16" cx="288.57" cy="692.04" r="4.69"/><rect class="cls-9" x="175.89" y="277.59" width="7.19" height="26.36" rx="1.5"/><circle class="cls-16" cx="172.29" cy="283.59" r="5.99"/><circle class="cls-16" cx="174.69" cy="276.4" r="5.99"/><circle class="cls-16" cx="179.48" cy="271.6" r="5.99"/><circle class="cls-16" cx="184.27" cy="278.79" r="5.99"/><circle class="cls-16" cx="181.88" cy="283.59" r="5.99"/><circle class="cls-16" cx="186.67" cy="285.98" r="5.99"/><rect class="cls-9" x="275.14" y="721.48" width="5.63" height="20.63" rx="1.5"/><circle class="cls-12" cx="272.32" cy="726.16" r="4.69"/><circle class="cls-12" cx="274.2" cy="720.54" r="4.69"/><circle class="cls-12" cx="277.95" cy="716.79" r="4.69"/><circle class="cls-12" cx="281.7" cy="722.41" r="4.69"/><circle class="cls-12" cx="279.82" cy="726.16" r="4.69"/><circle class="cls-12" cx="283.57" cy="728.04" r="4.69"/><rect class="cls-9" x="223.85" y="254.08" width="7.19" height="26.36" rx="1.5"/><circle class="cls-12" cx="220.25" cy="260.08" r="5.99"/><circle class="cls-12" cx="222.65" cy="252.89" r="5.99"/><circle class="cls-12" cx="227.44" cy="248.09" r="5.99"/><circle class="cls-12" cx="232.23" cy="255.28" r="5.99"/><circle class="cls-12" cx="229.84" cy="260.08" r="5.99"/><circle class="cls-12" cx="234.63" cy="262.47" r="5.99"/><rect class="cls-9" x="59.14" y="601.48" width="5.63" height="20.63" rx="1.5"/><circle class="cls-10" cx="56.32" cy="606.16" r="4.69"/><circle class="cls-10" cx="58.2" cy="600.54" r="4.69"/><circle class="cls-10" cx="61.95" cy="596.79" r="4.69"/><circle class="cls-10" cx="65.7" cy="602.41" r="4.69"/><circle class="cls-10" cx="63.82" cy="606.16" r="4.69"/><circle class="cls-10" cx="67.57" cy="608.04" r="4.69"/><rect class="cls-9" x="168.99" y="324.04" width="7.76" height="28.47" rx="1.5"/><circle class="cls-15" cx="165.11" cy="330.51" r="6.47"/><circle class="cls-15" cx="167.69" cy="322.75" r="6.47"/><circle class="cls-15" cx="172.87" cy="317.57" r="6.47"/><circle class="cls-15" cx="178.05" cy="325.34" r="6.47"/><circle class="cls-15" cx="175.46" cy="330.51" r="6.47"/><circle class="cls-15" cx="180.63" cy="333.1" r="6.47"/><rect class="cls-9" x="210.74" y="301.23" width="9.08" height="33.28" rx="1.5"/><circle class="cls-10" cx="206.2" cy="308.79" r="7.56"/><circle class="cls-10" cx="209.22" cy="299.72" r="7.56"/><circle class="cls-10" cx="215.28" cy="293.67" r="7.56"/><circle class="cls-10" cx="221.33" cy="302.74" r="7.56"/><circle class="cls-10" cx="218.3" cy="308.79" r="7.56"/><circle class="cls-10" cx="224.35" cy="311.82" r="7.56"/><rect class="cls-9" x="298.33" y="747.3" width="5.42" height="19.87" rx="1.44"/><circle class="cls-15" cx="295.62" cy="751.81" r="4.52"/><circle class="cls-15" cx="297.42" cy="746.39" r="4.52"/><circle class="cls-15" cx="301.04" cy="742.78" r="4.52"/><circle class="cls-15" cx="304.65" cy="748.2" r="4.52"/><circle class="cls-15" cx="302.84" cy="751.81" r="4.52"/><circle class="cls-15" cx="306.45" cy="753.62" r="4.52"/><circle class="cls-14" cx="307.42" cy="706.62" r="4.52"/><rect class="cls-9" x="304.71" y="711.13" width="5.42" height="19.87" rx="1.44"/><circle class="cls-14" cx="302" cy="715.65" r="4.52"/><circle class="cls-14" cx="303.81" cy="710.23" r="4.52"/><circle class="cls-14" cx="311.04" cy="712.04" r="4.52"/><circle class="cls-14" cx="309.23" cy="715.65" r="4.52"/><circle class="cls-14" cx="312.84" cy="717.46" r="4.52"/><circle class="cls-14" cx="136.19" cy="303.34" r="5.77"/><rect class="cls-9" x="132.72" y="309.11" width="6.93" height="25.4" rx="1.44"/><circle class="cls-14" cx="129.26" cy="314.88" r="5.77"/><circle class="cls-14" cx="131.57" cy="307.96" r="5.77"/><circle class="cls-14" cx="140.8" cy="310.26" r="5.77"/><circle class="cls-14" cx="138.49" cy="314.88" r="5.77"/><circle class="cls-14" cx="143.11" cy="317.19" r="5.77"/><rect class="cls-9" x="591.14" y="518.48" width="5.63" height="20.63" rx="1.5"/><circle class="cls-11" cx="588.32" cy="523.16" r="4.69"/><circle class="cls-11" cx="590.2" cy="517.54" r="4.69"/><circle class="cls-11" cx="593.95" cy="513.79" r="4.69"/><circle class="cls-11" cx="597.7" cy="519.41" r="4.69"/><circle class="cls-11" cx="595.82" cy="523.16" r="4.69"/><circle class="cls-11" cx="599.57" cy="525.04" r="4.69"/><rect class="cls-9" x="755.14" y="527.48" width="5.63" height="20.63" rx="1.5"/><circle class="cls-11" cx="752.32" cy="532.16" r="4.69"/><circle class="cls-11" cx="754.2" cy="526.54" r="4.69"/><circle class="cls-11" cx="757.95" cy="522.79" r="4.69"/><circle class="cls-11" cx="761.7" cy="528.41" r="4.69"/><circle class="cls-11" cx="759.82" cy="532.16" r="4.69"/><circle class="cls-11" cx="763.57" cy="534.04" r="4.69"/><rect class="cls-9" x="672.14" y="501.48" width="5.63" height="20.63" rx="1.5"/><circle class="cls-12" cx="669.32" cy="506.16" r="4.69"/><circle class="cls-12" cx="671.2" cy="500.54" r="4.69"/><circle class="cls-12" cx="674.95" cy="496.79" r="4.69"/><circle class="cls-12" cx="678.7" cy="502.41" r="4.69"/><circle class="cls-12" cx="676.82" cy="506.16" r="4.69"/><circle class="cls-12" cx="680.57" cy="508.04" r="4.69"/><rect class="cls-9" x="641.14" y="521.48" width="5.63" height="20.63" rx="1.5"/><circle class="cls-13" cx="638.32" cy="526.16" r="4.69"/><circle class="cls-13" cx="640.2" cy="520.54" r="4.69"/><circle class="cls-13" cx="643.95" cy="516.79" r="4.69"/><circle class="cls-13" cx="647.7" cy="522.41" r="4.69"/><circle class="cls-13" cx="645.82" cy="526.16" r="4.69"/><circle class="cls-13" cx="649.57" cy="528.04" r="4.69"/><rect class="cls-9" x="616.14" y="504.48" width="5.63" height="20.63" rx="1.5"/><circle class="cls-10" cx="613.32" cy="509.16" r="4.69"/><circle class="cls-10" cx="615.2" cy="503.54" r="4.69"/><circle class="cls-10" cx="618.95" cy="499.79" r="4.69"/><circle class="cls-10" cx="622.7" cy="505.41" r="4.69"/><circle class="cls-10" cx="620.82" cy="509.16" r="4.69"/><circle class="cls-10" cx="624.57" cy="511.04" r="4.69"/><rect class="cls-9" x="698.07" y="526.81" width="5.42" height="19.87" rx="1.44"/><circle class="cls-15" cx="695.36" cy="531.33" r="4.52"/><circle class="cls-15" cx="697.16" cy="525.91" r="4.52"/><circle class="cls-15" cx="700.78" cy="522.3" r="4.52"/><circle class="cls-15" cx="704.39" cy="527.71" r="4.52"/><circle class="cls-15" cx="702.58" cy="531.33" r="4.52"/><circle class="cls-15" cx="706.2" cy="533.13" r="4.52"/><rect class="cls-9" x="776.55" y="502.75" width="5.42" height="19.87" rx="1.44"/><circle class="cls-15" cx="773.84" cy="507.26" r="4.52"/><circle class="cls-15" cx="775.65" cy="501.84" r="4.52"/><circle class="cls-15" cx="779.26" cy="498.23" r="4.52"/><circle class="cls-15" cx="782.87" cy="503.65" r="4.52"/><circle class="cls-15" cx="781.07" cy="507.26" r="4.52"/><circle class="cls-15" cx="784.68" cy="509.07" r="4.52"/><circle class="cls-14" cx="799.52" cy="523.71" r="4.52"/><rect class="cls-9" x="796.81" y="528.23" width="5.42" height="19.87" rx="1.44"/><circle class="cls-14" cx="794.1" cy="532.75" r="4.52"/><circle class="cls-14" cx="795.91" cy="527.33" r="4.52"/><circle class="cls-14" cx="803.13" cy="529.13" r="4.52"/><circle class="cls-14" cx="801.33" cy="532.75" r="4.52"/><circle class="cls-14" cx="804.94" cy="534.55" r="4.52"/><circle class="cls-14" cx="727.33" cy="495.68" r="4.52"/><rect class="cls-9" x="724.62" y="500.2" width="5.42" height="19.87" rx="1.44"/><circle class="cls-14" cx="721.91" cy="504.71" r="4.52"/><circle class="cls-14" cx="723.71" cy="499.3" r="4.52"/><circle class="cls-14" cx="730.94" cy="501.1" r="4.52"/><circle class="cls-14" cx="729.13" cy="504.71" r="4.52"/><circle class="cls-14" cx="732.74" cy="506.52" r="4.52"/><path class="cls-3" d="M217.74,404.17s9.31,6.81,13.54,2.56,16.92-2.56,21.15-4.26,15.23-15.31,13.54-19.56-3.39-23.82-8.46-21.27-22,3.4-29.62,7.66-35.15-12-39.38.75-4.24,29.68,9.3,34.78S217.74,404.17,217.74,404.17Z"/><rect class="cls-9" x="327.77" y="174.19" width="4.07" height="14.91" rx="1.5"/><circle class="cls-10" cx="325.74" cy="177.58" r="3.39"/><circle class="cls-10" cx="327.1" cy="173.52" r="3.39"/><circle class="cls-10" cx="329.81" cy="170.81" r="3.39"/><circle class="cls-10" cx="332.52" cy="174.87" r="3.39"/><circle class="cls-10" cx="331.16" cy="177.58" r="3.39"/><circle class="cls-10" cx="333.87" cy="178.94" r="3.39"/><rect class="cls-9" x="274.72" y="193.04" width="4.09" height="13.06" rx="1.02"/><ellipse class="cls-12" cx="272.67" cy="196.01" rx="3.41" ry="2.97"/><ellipse class="cls-12" cx="274.03" cy="192.45" rx="3.41" ry="2.97"/><ellipse class="cls-12" cx="276.76" cy="190.07" rx="3.41" ry="2.97"/><ellipse class="cls-12" cx="279.49" cy="193.63" rx="3.41" ry="2.97"/><ellipse class="cls-12" cx="278.12" cy="196.01" rx="3.41" ry="2.97"/><ellipse class="cls-12" cx="280.85" cy="197.2" rx="3.41" ry="2.97"/><rect class="cls-9" x="291.66" y="172.37" width="3.76" height="13.79" rx="1"/><circle class="cls-15" cx="289.78" cy="175.5" r="3.13"/><circle class="cls-15" cx="291.03" cy="171.74" r="3.13"/><circle class="cls-15" cx="293.54" cy="169.23" r="3.13"/><circle class="cls-15" cx="296.05" cy="172.99" r="3.13"/><circle class="cls-15" cx="294.79" cy="175.5" r="3.13"/><circle class="cls-15" cx="297.3" cy="176.75" r="3.13"/><circle class="cls-14" cx="310.85" cy="190.18" r="3.13"/><rect class="cls-9" x="308.97" y="193.31" width="3.76" height="13.79" rx="1"/><circle class="cls-14" cx="307.09" cy="196.45" r="3.13"/><circle class="cls-14" cx="308.34" cy="192.69" r="3.13"/><circle class="cls-14" cx="313.35" cy="193.94" r="3.13"/><circle class="cls-14" cx="312.1" cy="196.45" r="3.13"/><circle class="cls-14" cx="314.61" cy="197.7" r="3.13"/><polygon class="cls-17" points="536.47 141.5 515.85 139.42 508.93 150.49 536.47 148.71 536.47 141.5"/><polygon class="cls-18" points="534.53 146.34 534.53 45.97 545.37 58.03 558.92 142.13 534.53 146.34"/><polygon class="cls-19" points="550.79 137.93 550.79 47.62 567.04 39.1 567.04 110.44 558.92 110.44 558.92 137.93 550.79 137.93"/><line class="cls-20" x1="552.14" y1="138.98" x2="550.79" y2="47.51"/><polygon class="cls-17" points="531.07 158.1 536.6 137.35 573.23 137.35 569.77 151.18 531.07 158.1"/><line class="cls-21" x1="560.27" y1="42.26" x2="560.27" y2="75.9"/><line class="cls-21" x1="544.01" y1="56.97" x2="544.01" y2="80.1"/><line class="cls-22" x1="516.54" y1="138.73" x2="509.62" y2="149.8"/><line class="cls-22" x1="537.3" y1="137.35" x2="531.28" y2="157.98"/><path class="cls-23" d="M677.76,400.6s200.52,97,253.76,171.5"/><path class="cls-23" d="M377.76,537.6s-30,93-15,124l37,159s3,67.48-6,96.24"/><line class="cls-24" x1="30.26" y1="643.1" x2="366.76" y2="663.25"/><path class="cls-23" d="M509.17,305.42s151.46-9.18,166,0,55.57,46.44,61.07,61.81"/><path class="cls-23" d="M796.26,324.12c-24.5,26.52-118.5,76.48-118.5,76.48l-146-10L558,529.52s10.8,43.63-29.47,65.42a18.61,18.61,0,0,1-19.45-1.09C475,570.29,377.76,537.6,377.76,537.6c-10.4-3.74-209-127-209-127s-94.87-40.76-74.24-84.67c15.83-33.69,51.82-57.09,71.24-67.77,8.18-4.5,41.45-19.57,44-28.56,7.05-24.87-3.43-66.07,21-72,33-8,171,5,184,10l46,16S509.26,301.07,520,336.33s11.75,54.27,11.75,54.27"/><line class="cls-25" x1="841.26" y1="386.1" x2="842.26" y2="386.1"/><rect class="cls-26" x="825.08" y="340.53" width="10.94" height="9.21"/><line class="cls-27" x1="830.55" y1="325.56" x2="830.55" y2="331.31"/><line class="cls-27" x1="828.53" y1="327.57" x2="832.56" y2="327.57"/><rect class="cls-26" x="811.26" y="371.04" width="8.64" height="8.06" rx="2.15"/><rect class="cls-26" x="840.62" y="371.04" width="8.64" height="8.06" rx="1.85"/><rect class="cls-26" x="817.31" y="354.63" width="25.91" height="24.47"/><line class="cls-28" x1="817.31" y1="367.3" x2="843.5" y2="367.3"/><polygon class="cls-29" points="813.33 354.63 847.82 354.63 843.22 349.39 817.31 349.39 813.33 354.63"/><rect class="cls-26" x="828.53" y="330.74" width="4.03" height="4.03" rx="0.66"/><path class="cls-29" d="M822.38,340.53l16.07.05S831.19,326.13,822.38,340.53Z"/><path class="cls-29" d="M827.63,365.32h5.86s-1.45-5.68-2.92-6.31S827.63,365.32,827.63,365.32Z"/><path class="cls-29" d="M819.57,375.65h5.86s-1.45-5.69-2.92-6.32S819.57,375.65,819.57,375.65Z"/><path class="cls-29" d="M835.69,375.65h5.86s-1.45-5.69-2.92-6.32S835.69,375.65,835.69,375.65Z"/><path class="cls-29" d="M828.14,347.43h4.77s-1.18-4.63-2.37-5.14S828.14,347.43,828.14,347.43Z"/><rect class="cls-4" x="150.08" y="714.61" width="15.07" height="41.99" transform="translate(26.7 -5.22) rotate(2.07)"/><rect class="cls-4" x="192.47" y="724.76" width="15.07" height="33.37" transform="translate(26.94 -6.75) rotate(2.07)"/><rect class="cls-4" x="110.7" y="721.8" width="15.07" height="33.37" transform="translate(26.78 -3.79) rotate(2.07)"/><polygon class="cls-30" points="120.49 707.66 130.4 723.29 109.47 722.53 120.49 707.66"/><polygon class="cls-30" points="200 710.55 209.91 726.18 188.98 725.43 200 710.55"/><polygon class="cls-30" points="158.63 700.11 168.76 716.08 147.38 715.3 158.63 700.11"/><rect class="cls-6" x="125.55" y="734.58" width="66.75" height="22.07" transform="translate(27.06 -5.26) rotate(2.07)"/><rect class="cls-6" x="128.73" y="729.31" width="7.54" height="4.31" transform="translate(26.54 -4.31) rotate(2.07)"/><rect class="cls-6" x="139.49" y="729.7" width="7.54" height="4.31" transform="translate(26.56 -4.7) rotate(2.07)"/><rect class="cls-6" x="150.25" y="730.09" width="7.54" height="4.31" transform="translate(26.58 -5.09) rotate(2.07)"/><rect class="cls-6" x="161.01" y="730.48" width="7.54" height="4.31" transform="matrix(1, 0.04, -0.04, 1, 26.6, -5.48)"/><rect class="cls-6" x="172.31" y="730.89" width="7.54" height="4.31" transform="matrix(1, 0.04, -0.04, 1, 26.62, -5.89)"/><rect class="cls-6" x="183.07" y="731.28" width="7.54" height="4.31" transform="translate(26.64 -6.28) rotate(2.07)"/><rect class="cls-31" x="197.97" y="735.52" width="3.77" height="5.38" transform="translate(26.82 -6.74) rotate(2.07)"/><ellipse class="cls-31" cx="199.96" cy="735.49" rx="1.65" ry="1.88" transform="matrix(0.04, -1, 1, 0.04, -542.28, 908.72)"/><rect class="cls-31" x="155.87" y="721.61" width="3.77" height="5.38" transform="translate(26.29 -5.23) rotate(2.07)"/><ellipse class="cls-31" cx="157.86" cy="721.57" rx="1.65" ry="1.88" transform="matrix(0.04, -1, 1, 0.04, -568.95, 853.23)"/><rect class="cls-31" x="116.7" y="733.65" width="3.77" height="5.38" transform="matrix(1, 0.04, -0.04, 1, 26.7, -3.81)"/><ellipse class="cls-31" cx="118.69" cy="733.62" rx="1.65" ry="1.88" transform="translate(-618.75 825.7) rotate(-87.93)"/><path class="cls-32" d="M289.26,485.1s-22.42,36.27-52.47,45.69-51,10.31-51,10.31H30.26"/><path class="cls-33" d="M55.41,372.51s420.48,268.2,490.36,286.94"/><path class="cls-33" d="M53.35,384.87s420.49,268.2,490.37,286.94"/><line class="cls-33" x1="62.85" y1="390.91" x2="69.81" y2="381.66"/><line class="cls-33" x1="69.62" y1="394.94" x2="75.77" y2="385.67"/><line class="cls-33" x1="75.77" y1="399.06" x2="81.93" y2="388.76"/><line class="cls-33" x1="80.3" y1="402.24" x2="87.26" y2="392.99"/><line class="cls-33" x1="87.06" y1="406.27" x2="93.22" y2="397"/><line class="cls-33" x1="93.22" y1="410.39" x2="99.38" y2="400.09"/><line class="cls-33" x1="98.77" y1="413.57" x2="105.73" y2="404.32"/><line class="cls-33" x1="105.54" y1="417.6" x2="111.7" y2="408.33"/><line class="cls-33" x1="111.7" y1="421.72" x2="117.86" y2="411.42"/><line class="cls-33" x1="116.22" y1="424.9" x2="123.18" y2="415.65"/><line class="cls-33" x1="122.99" y1="428.93" x2="129.15" y2="419.66"/><line class="cls-33" x1="129.15" y1="433.05" x2="135.3" y2="422.75"/><line class="cls-33" x1="134.7" y1="436.23" x2="141.66" y2="426.98"/><line class="cls-33" x1="141.46" y1="440.26" x2="147.62" y2="430.99"/><line class="cls-33" x1="147.62" y1="444.38" x2="153.78" y2="434.08"/><line class="cls-33" x1="152.14" y1="447.56" x2="159.11" y2="438.31"/><line class="cls-33" x1="158.91" y1="451.59" x2="165.07" y2="442.32"/><line class="cls-33" x1="165.07" y1="455.71" x2="171.23" y2="445.41"/><line class="cls-33" x1="170.62" y1="458.89" x2="177.58" y2="449.64"/><line class="cls-33" x1="177.39" y1="462.92" x2="183.54" y2="453.65"/><line class="cls-33" x1="183.54" y1="467.04" x2="189.7" y2="456.74"/><line class="cls-33" x1="188.07" y1="470.22" x2="195.03" y2="460.97"/><line class="cls-33" x1="194.83" y1="474.25" x2="200.99" y2="464.98"/><line class="cls-33" x1="200.99" y1="478.37" x2="207.15" y2="468.07"/><line class="cls-33" x1="208.6" y1="481.55" x2="215.56" y2="472.3"/><line class="cls-33" x1="215.36" y1="485.58" x2="221.52" y2="476.31"/><line class="cls-33" x1="221.52" y1="489.7" x2="227.68" y2="479.4"/><line class="cls-33" x1="226.04" y1="492.88" x2="233.01" y2="483.63"/><line class="cls-33" x1="232.81" y1="496.91" x2="238.97" y2="487.64"/><line class="cls-33" x1="238.97" y1="501.03" x2="245.13" y2="490.73"/><line class="cls-33" x1="244.52" y1="504.21" x2="251.48" y2="494.96"/><line class="cls-33" x1="251.29" y1="508.24" x2="257.44" y2="498.97"/><line class="cls-33" x1="257.44" y1="512.36" x2="263.6" y2="502.06"/><line class="cls-33" x1="261.97" y1="515.54" x2="268.93" y2="506.29"/><line class="cls-33" x1="268.73" y1="519.57" x2="274.89" y2="510.3"/><line class="cls-33" x1="274.89" y1="523.69" x2="281.05" y2="513.39"/><line class="cls-33" x1="282.49" y1="526.78" x2="289.51" y2="517.62"/><line class="cls-33" x1="289.31" y1="530.77" x2="295.51" y2="521.59"/><line class="cls-33" x1="295.51" y1="534.85" x2="301.71" y2="524.65"/><line class="cls-33" x1="300.07" y1="537.99" x2="307.08" y2="528.84"/><line class="cls-33" x1="306.88" y1="541.99" x2="313.08" y2="532.81"/><line class="cls-33" x1="313.08" y1="546.06" x2="319.29" y2="535.87"/><line class="cls-33" x1="318.67" y1="549.21" x2="325.68" y2="540.06"/><line class="cls-33" x1="325.49" y1="553.2" x2="331.69" y2="544.03"/><line class="cls-33" x1="331.69" y1="557.28" x2="337.89" y2="547.08"/><line class="cls-33" x1="336.24" y1="560.43" x2="343.26" y2="551.27"/><line class="cls-33" x1="343.06" y1="564.42" x2="349.26" y2="555.24"/><line class="cls-33" x1="349.26" y1="568.5" x2="355.46" y2="558.3"/><line class="cls-33" x1="355.46" y1="570.37" x2="362.56" y2="561.29"/><line class="cls-33" x1="362.36" y1="574.33" x2="368.65" y2="565.23"/><line class="cls-33" x1="368.65" y1="578.38" x2="374.93" y2="568.26"/><line class="cls-33" x1="373.26" y1="581.5" x2="380.36" y2="572.42"/><line class="cls-33" x1="380.16" y1="585.46" x2="386.44" y2="576.35"/><line class="cls-33" x1="386.44" y1="589.5" x2="392.72" y2="579.39"/><line class="cls-33" x1="392.1" y1="592.62" x2="399.2" y2="583.54"/><line class="cls-33" x1="399" y1="596.58" x2="405.29" y2="587.48"/><line class="cls-33" x1="405.29" y1="600.63" x2="411.57" y2="590.52"/><line class="cls-33" x1="409.9" y1="603.75" x2="417" y2="594.67"/><line class="cls-33" x1="416.8" y1="607.71" x2="423.08" y2="598.61"/><line class="cls-33" x1="423.08" y1="611.76" x2="429.36" y2="601.64"/><line class="cls-33" x1="429.36" y1="613.67" x2="437.35" y2="604.14"/><line class="cls-33" x1="437.13" y1="617.82" x2="444.19" y2="608.27"/><line class="cls-33" x1="444.19" y1="622.07" x2="451.26" y2="611.46"/><line class="cls-33" x1="449.38" y1="625.34" x2="457.37" y2="615.81"/><line class="cls-33" x1="457.15" y1="629.49" x2="464.21" y2="619.94"/><line class="cls-33" x1="464.21" y1="633.74" x2="471.28" y2="623.13"/><line class="cls-33" x1="470.58" y1="637.01" x2="478.57" y2="627.49"/><line class="cls-33" x1="478.35" y1="641.16" x2="485.41" y2="631.62"/><line class="cls-33" x1="485.41" y1="645.41" x2="492.48" y2="634.8"/><line class="cls-33" x1="490.6" y1="648.68" x2="498.59" y2="639.16"/><line class="cls-33" x1="498.37" y1="652.84" x2="505.43" y2="643.29"/><line class="cls-33" x1="505.43" y1="657.08" x2="512.5" y2="646.47"/><line class="cls-33" x1="512.05" y1="659.02" x2="519.12" y2="649.47"/><line class="cls-33" x1="518.09" y1="662.24" x2="525.16" y2="651.63"/><line class="cls-33" x1="523.28" y1="664.48" x2="531.27" y2="654.96"/><line class="cls-33" x1="530.02" y1="666.57" x2="537.09" y2="657.03"/><line class="cls-33" x1="537.09" y1="669.79" x2="544.15" y2="659.18"/><line class="cls-34" x1="452.47" y1="618.39" x2="458.89" y2="621.89"/><path class="cls-35" d="M411.56,601.43h45.53a.45.45,0,0,1,.45.45v9.54a.45.45,0,0,1-.45.45H404.69a.45.45,0,0,1-.45-.45v-2.68a7.32,7.32,0,0,1,7.32-7.32Z" transform="translate(342.27 -132.16) rotate(28.55)"/><rect class="cls-35" x="452.9" y="627.9" width="53.3" height="10.45" transform="translate(360.83 -152.19) rotate(28.55)"/><rect class="cls-35" x="417.69" y="590.82" width="2.09" height="4.18" transform="translate(334.22 -128.02) rotate(28.55)"/><circle class="cls-36" cx="422.94" cy="586.27" r="2.61"/><circle class="cls-36" cx="420.11" cy="587.11" r="2.61"/><circle class="cls-36" cx="426.2" cy="586.85" r="2.61"/><circle class="cls-36" cx="423.28" cy="590.02" r="2.61"/><circle class="cls-36" cx="429.87" cy="588.85" r="2.61"/><circle class="cls-36" cx="419.53" cy="590.36" r="2.61"/><rect class="cls-37" x="411.82" y="596.37" width="4.18" height="2.09" transform="translate(335.79 -125.16) rotate(28.55)"/><rect class="cls-37" x="418.24" y="599.87" width="4.18" height="2.09" transform="translate(338.24 -127.81) rotate(28.55)"/><rect class="cls-37" x="424.67" y="603.36" width="4.18" height="2.09" transform="translate(340.69 -130.46) rotate(28.55)"/><rect class="cls-37" x="431.1" y="606.86" width="4.18" height="2.09" transform="translate(343.14 -133.1) rotate(28.55)"/><rect class="cls-37" x="437.52" y="610.35" width="4.18" height="2.09" transform="translate(345.59 -135.75) rotate(28.55)"/><rect class="cls-37" x="443.95" y="613.85" width="4.18" height="2.09" transform="translate(348.05 -138.39) rotate(28.55)"/><rect class="cls-37" x="459.56" y="622.34" width="4.18" height="2.09" transform="translate(354 -144.82) rotate(28.55)"/><rect class="cls-37" x="465.98" y="625.84" width="4.18" height="2.09" transform="translate(356.45 -147.47) rotate(28.55)"/><rect class="cls-37" x="472.41" y="629.33" width="4.18" height="2.09" transform="translate(358.9 -150.11) rotate(28.55)"/><rect class="cls-37" x="478.84" y="632.83" width="4.18" height="2.09" transform="translate(361.36 -152.76) rotate(28.55)"/><rect class="cls-37" x="485.26" y="636.32" width="4.18" height="2.09" transform="translate(363.81 -155.4) rotate(28.55)"/><rect class="cls-37" x="491.69" y="639.82" width="4.18" height="2.09" transform="translate(366.26 -158.05) rotate(28.55)"/><line class="cls-38" x1="39.85" y1="446.01" x2="43.85" y2="451.01"/><line class="cls-38" x1="46.36" y1="444.35" x2="47.35" y2="450.67"/><line class="cls-38" x1="52.96" y1="444.5" x2="50.75" y2="450.51"/><line class="cls-38" x1="484.85" y1="606.01" x2="488.85" y2="611.01"/><line class="cls-38" x1="491.36" y1="604.35" x2="492.35" y2="610.67"/><line class="cls-38" x1="497.96" y1="604.5" x2="495.75" y2="610.51"/><line class="cls-38" x1="489.85" y1="364.01" x2="493.85" y2="369.01"/><line class="cls-38" x1="496.36" y1="362.35" x2="497.35" y2="368.67"/><line class="cls-38" x1="502.96" y1="362.5" x2="500.75" y2="368.51"/><line class="cls-38" x1="697.85" y1="304.01" x2="701.85" y2="309.01"/><line class="cls-38" x1="704.36" y1="302.35" x2="705.35" y2="308.67"/><line class="cls-38" x1="710.96" y1="302.5" x2="708.75" y2="308.51"/><line class="cls-38" x1="751.85" y1="469.01" x2="755.85" y2="474.01"/><line class="cls-38" x1="758.36" y1="467.35" x2="759.35" y2="473.67"/><line class="cls-38" x1="764.96" y1="467.5" x2="762.75" y2="473.51"/><line class="cls-38" x1="389.85" y1="654.01" x2="393.85" y2="659.01"/><line class="cls-38" x1="396.36" y1="652.35" x2="397.35" y2="658.67"/><line class="cls-38" x1="402.96" y1="652.5" x2="400.75" y2="658.51"/><line class="cls-38" x1="242.85" y1="605.01" x2="246.85" y2="610.01"/><line class="cls-38" x1="249.36" y1="603.35" x2="250.35" y2="609.67"/><line class="cls-38" x1="255.96" y1="603.5" x2="253.75" y2="609.51"/><line class="cls-38" x1="326.85" y1="837.01" x2="330.85" y2="842.01"/><line class="cls-38" x1="333.36" y1="835.35" x2="334.35" y2="841.67"/><line class="cls-38" x1="339.96" y1="835.5" x2="337.75" y2="841.51"/><line class="cls-38" x1="911.85" y1="727.01" x2="915.85" y2="732.01"/><line class="cls-38" x1="918.36" y1="725.35" x2="919.35" y2="731.67"/><line class="cls-38" x1="924.96" y1="725.5" x2="922.75" y2="731.51"/><line class="cls-38" x1="136.85" y1="355.01" x2="140.85" y2="360.01"/><line class="cls-38" x1="143.36" y1="353.35" x2="144.35" y2="359.67"/><line class="cls-38" x1="149.96" y1="353.5" x2="147.75" y2="359.51"/><line class="cls-38" x1="166.85" y1="220.01" x2="170.85" y2="225.01"/><line class="cls-38" x1="173.36" y1="218.35" x2="174.35" y2="224.67"/><line class="cls-38" x1="179.96" y1="218.5" x2="177.75" y2="224.51"/><line class="cls-38" x1="245.85" y1="331.01" x2="249.85" y2="336.01"/><line class="cls-38" x1="252.36" y1="329.35" x2="253.35" y2="335.67"/><line class="cls-38" x1="258.96" y1="329.5" x2="256.75" y2="335.51"/><line class="cls-38" x1="433.85" y1="157.01" x2="437.85" y2="162.01"/><line class="cls-38" x1="440.36" y1="155.35" x2="441.35" y2="161.67"/><line class="cls-38" x1="446.96" y1="155.5" x2="444.75" y2="161.51"/><path class="cls-15" d="M353.78,210.59a3.66,3.66,0,0,0-.37,1.78c.14,3.25,1.22,13.41,9.37,12,10.74-.27,31.59,0,34.94,0a4.07,4.07,0,0,0,1-.12c1.82-.49,7.76-2.52,9.81-8.61a3.74,3.74,0,0,0,0-2.47,43.81,43.81,0,0,0-6.18-10.71,3.7,3.7,0,0,0-4.87-.91l-4.86,2.93a3.75,3.75,0,0,1-3.85,0l-5.68-3.43a3.7,3.7,0,0,0-3.85,0l-5.92,3.57a3.71,3.71,0,0,1-3.47.21l-7.55-3.44a3.71,3.71,0,0,0-4.89,1.76Z"/><line class="cls-39" x1="359.46" y1="210.76" x2="367.09" y2="210.15"/><line class="cls-39" x1="357.93" y1="218.42" x2="365.56" y2="217.8"/><line class="cls-39" x1="370.18" y1="207.7" x2="377.8" y2="207.09"/><line class="cls-39" x1="373.24" y1="212.29" x2="380.87" y2="211.68"/><line class="cls-39" x1="382.42" y1="207.7" x2="390.05" y2="207.09"/><line class="cls-39" x1="394.67" y1="215.35" x2="402.29" y2="214.74"/><line class="cls-39" x1="391.6" y1="210.76" x2="399.23" y2="210.15"/><line class="cls-39" x1="374.81" y1="217.45" x2="382.35" y2="218.76"/><line class="cls-39" x1="382.46" y1="214.39" x2="390.01" y2="215.7"/><path class="cls-14" d="M166.65,788.1a2.45,2.45,0,0,0-.24,1.16c.09,2.12.8,8.76,6.12,7.84,7-.17,20.64,0,22.83,0A2.41,2.41,0,0,0,196,797c1.18-.32,5.07-1.64,6.4-5.62a2.43,2.43,0,0,0,0-1.62,28.67,28.67,0,0,0-4-7,2.44,2.44,0,0,0-3.19-.59L192,784.1a2.41,2.41,0,0,1-2.51,0l-3.71-2.24a2.43,2.43,0,0,0-2.52,0l-3.87,2.34a2.46,2.46,0,0,1-2.27.13l-4.93-2.25a2.45,2.45,0,0,0-3.2,1.16Z"/><line class="cls-39" x1="172.36" y1="788.21" x2="177.35" y2="787.81"/><line class="cls-39" x1="171.36" y1="793.21" x2="176.35" y2="792.81"/><line class="cls-39" x1="179.36" y1="786.21" x2="184.35" y2="785.81"/><line class="cls-39" x1="181.36" y1="789.21" x2="186.35" y2="788.81"/><line class="cls-39" x1="187.36" y1="786.21" x2="192.35" y2="785.81"/><line class="cls-39" x1="195.36" y1="791.21" x2="200.35" y2="790.81"/><line class="cls-39" x1="193.36" y1="788.21" x2="198.35" y2="787.81"/><line class="cls-39" x1="182.39" y1="792.58" x2="187.32" y2="793.44"/><line class="cls-39" x1="187.39" y1="790.58" x2="192.32" y2="791.44"/><path class="cls-14" d="M440.65,400.1a2.45,2.45,0,0,0-.24,1.16c.09,2.12.8,8.76,6.12,7.84,7-.17,20.64,0,22.83,0A2.41,2.41,0,0,0,470,409c1.18-.32,5.07-1.64,6.4-5.62a2.43,2.43,0,0,0,0-1.62,28.67,28.67,0,0,0-4-7,2.44,2.44,0,0,0-3.19-.59L466,396.1a2.41,2.41,0,0,1-2.51,0l-3.71-2.24a2.43,2.43,0,0,0-2.52,0l-3.87,2.34a2.46,2.46,0,0,1-2.27.13l-4.93-2.25a2.45,2.45,0,0,0-3.2,1.16Z"/><line class="cls-39" x1="446.36" y1="400.21" x2="451.35" y2="399.81"/><line class="cls-39" x1="445.36" y1="405.21" x2="450.35" y2="404.81"/><line class="cls-39" x1="453.36" y1="398.21" x2="458.35" y2="397.81"/><line class="cls-39" x1="455.36" y1="401.21" x2="460.35" y2="400.81"/><line class="cls-39" x1="461.36" y1="398.21" x2="466.35" y2="397.81"/><line class="cls-39" x1="469.36" y1="403.21" x2="474.35" y2="402.81"/><line class="cls-39" x1="467.36" y1="400.21" x2="472.35" y2="399.81"/><line class="cls-39" x1="456.39" y1="404.58" x2="461.32" y2="405.44"/><line class="cls-39" x1="461.39" y1="402.58" x2="466.32" y2="403.44"/><path class="cls-14" d="M116.65,243.1a2.45,2.45,0,0,0-.24,1.16c.09,2.12.8,8.76,6.12,7.84,7-.17,20.64,0,22.83,0A2.41,2.41,0,0,0,146,252c1.18-.32,5.07-1.64,6.4-5.62a2.43,2.43,0,0,0,0-1.62,28.67,28.67,0,0,0-4-7,2.44,2.44,0,0,0-3.19-.59L142,239.1a2.41,2.41,0,0,1-2.51,0l-3.71-2.24a2.43,2.43,0,0,0-2.52,0l-3.87,2.34a2.46,2.46,0,0,1-2.27.13l-4.93-2.25a2.45,2.45,0,0,0-3.2,1.16Z"/><line class="cls-39" x1="122.36" y1="243.21" x2="127.35" y2="242.81"/><line class="cls-39" x1="121.36" y1="248.21" x2="126.35" y2="247.81"/><line class="cls-39" x1="129.36" y1="241.21" x2="134.35" y2="240.81"/><line class="cls-39" x1="131.36" y1="244.21" x2="136.35" y2="243.81"/><line class="cls-39" x1="137.36" y1="241.21" x2="142.35" y2="240.81"/><line class="cls-39" x1="145.36" y1="246.21" x2="150.35" y2="245.81"/><line class="cls-39" x1="143.36" y1="243.21" x2="148.35" y2="242.81"/><line class="cls-39" x1="132.39" y1="247.58" x2="137.32" y2="248.44"/><line class="cls-39" x1="137.39" y1="245.58" x2="142.32" y2="246.44"/><path class="cls-10" d="M903.65,635.1a2.45,2.45,0,0,0-.24,1.16c.09,2.12.8,8.76,6.12,7.84,7-.17,20.64,0,22.83,0A2.41,2.41,0,0,0,933,644c1.18-.32,5.07-1.64,6.4-5.62a2.43,2.43,0,0,0,0-1.62,28.67,28.67,0,0,0-4-7,2.44,2.44,0,0,0-3.19-.59L929,631.1a2.41,2.41,0,0,1-2.51,0l-3.71-2.24a2.43,2.43,0,0,0-2.52,0l-3.87,2.34a2.46,2.46,0,0,1-2.27.13l-4.93-2.25a2.45,2.45,0,0,0-3.2,1.16Z"/><line class="cls-39" x1="908.36" y1="635.21" x2="913.35" y2="634.81"/><line class="cls-39" x1="907.36" y1="640.21" x2="912.35" y2="639.81"/><line class="cls-39" x1="915.36" y1="633.21" x2="920.35" y2="632.81"/><line class="cls-39" x1="917.36" y1="636.21" x2="922.35" y2="635.81"/><line class="cls-39" x1="923.36" y1="633.21" x2="928.35" y2="632.81"/><line class="cls-39" x1="931.36" y1="638.21" x2="936.35" y2="637.81"/><line class="cls-39" x1="929.36" y1="635.21" x2="934.35" y2="634.81"/><line class="cls-39" x1="918.39" y1="639.58" x2="923.32" y2="640.44"/><line class="cls-39" x1="923.39" y1="637.58" x2="928.32" y2="638.44"/><path class="cls-10" d="M395.76,726a3.56,3.56,0,0,0-.35,1.67c.13,3.05,1.15,12.59,8.8,11.27,10.09-.25,29.66,0,32.81,0a3.29,3.29,0,0,0,.93-.11c1.7-.46,7.28-2.36,9.21-8.08a3.48,3.48,0,0,0,0-2.32,40.58,40.58,0,0,0-5.8-10.06,3.48,3.48,0,0,0-4.57-.86l-4.56,2.76a3.49,3.49,0,0,1-3.61,0L423.27,717a3.49,3.49,0,0,0-3.61,0l-5.56,3.36a3.49,3.49,0,0,1-3.26.19l-7.09-3.22a3.49,3.49,0,0,0-4.6,1.65Z"/><line class="cls-39" x1="402.53" y1="726.14" x2="409.69" y2="725.56"/><line class="cls-39" x1="401.09" y1="733.32" x2="408.25" y2="732.75"/><line class="cls-39" x1="412.59" y1="723.26" x2="419.75" y2="722.69"/><line class="cls-39" x1="415.46" y1="727.57" x2="422.63" y2="727"/><line class="cls-39" x1="424.09" y1="723.26" x2="431.25" y2="722.69"/><line class="cls-39" x1="435.58" y1="730.45" x2="442.75" y2="729.87"/><line class="cls-39" x1="432.71" y1="726.14" x2="439.87" y2="725.56"/><line class="cls-39" x1="416.94" y1="732.42" x2="424.02" y2="733.65"/><line class="cls-39" x1="424.13" y1="729.55" x2="431.21" y2="730.78"/><path class="cls-10" d="M292.65,816.1a2.45,2.45,0,0,0-.24,1.16c.09,2.12.8,8.76,6.12,7.84,7-.17,20.64,0,22.83,0A2.41,2.41,0,0,0,322,825c1.18-.32,5.07-1.64,6.4-5.62a2.43,2.43,0,0,0,0-1.62,28.67,28.67,0,0,0-4-7,2.44,2.44,0,0,0-3.19-.59L318,812.1a2.41,2.41,0,0,1-2.51,0l-3.71-2.24a2.43,2.43,0,0,0-2.52,0l-3.87,2.34a2.46,2.46,0,0,1-2.27.13l-4.93-2.25a2.45,2.45,0,0,0-3.2,1.16Z"/><line class="cls-39" x1="297.36" y1="816.21" x2="302.35" y2="815.81"/><line class="cls-39" x1="296.36" y1="821.21" x2="301.35" y2="820.81"/><line class="cls-39" x1="304.36" y1="814.21" x2="309.35" y2="813.81"/><line class="cls-39" x1="306.36" y1="817.21" x2="311.35" y2="816.81"/><line class="cls-39" x1="312.36" y1="814.21" x2="317.35" y2="813.81"/><line class="cls-39" x1="320.36" y1="819.21" x2="325.35" y2="818.81"/><line class="cls-39" x1="318.36" y1="816.21" x2="323.35" y2="815.81"/><line class="cls-39" x1="307.39" y1="820.58" x2="312.32" y2="821.44"/><line class="cls-39" x1="312.39" y1="818.58" x2="317.32" y2="819.44"/><path class="cls-10" d="M59.73,505.06a3.2,3.2,0,0,0-.32,1.52c.12,2.76,1,11.38,8,10.18,9.12-.22,26.81,0,29.65,0a3,3,0,0,0,.84-.11c1.55-.41,6.59-2.13,8.33-7.3a3.15,3.15,0,0,0,0-2.1,37.15,37.15,0,0,0-5.24-9.09,3.15,3.15,0,0,0-4.13-.77l-4.12,2.49a3.2,3.2,0,0,1-3.27,0L84.59,497a3.15,3.15,0,0,0-3.27,0l-5,3a3.15,3.15,0,0,1-3,.17l-6.41-2.91a3.16,3.16,0,0,0-4.15,1.49Z"/><line class="cls-39" x1="65.84" y1="505.21" x2="72.32" y2="504.69"/><line class="cls-39" x1="64.54" y1="511.7" x2="71.02" y2="511.18"/><line class="cls-39" x1="74.94" y1="502.61" x2="81.41" y2="502.09"/><line class="cls-39" x1="77.53" y1="506.51" x2="84.01" y2="505.99"/><line class="cls-39" x1="85.33" y1="502.61" x2="91.8" y2="502.09"/><line class="cls-39" x1="95.72" y1="509.11" x2="102.19" y2="508.59"/><line class="cls-39" x1="93.12" y1="505.21" x2="99.59" y2="504.69"/><line class="cls-39" x1="78.87" y1="510.89" x2="85.27" y2="512"/><line class="cls-39" x1="85.36" y1="508.29" x2="91.76" y2="509.4"/><ellipse class="cls-10" cx="613.51" cy="270.01" rx="3.87" ry="1.68" transform="translate(52.89 637.43) rotate(-56.99)"/><ellipse class="cls-10" cx="610.71" cy="270.01" rx="1.86" ry="3.5"/><ellipse class="cls-10" cx="607.92" cy="270.01" rx="1.65" ry="3.96" transform="translate(-42.41 409.78) rotate(-36.08)"/><ellipse class="cls-10" cx="324.22" cy="259.98" rx="2.79" ry="6.25" transform="translate(-90.83 238.93) rotate(-35.82)"/><ellipse class="cls-10" cx="328.95" cy="259.98" rx="3.16" ry="5.52"/><ellipse class="cls-10" cx="333.69" cy="259.98" rx="6.41" ry="2.72" transform="translate(-78.18 356.46) rotate(-51.11)"/><ellipse class="cls-10" cx="850.22" cy="540.98" rx="2.79" ry="6.25" transform="translate(-155.79 599.94) rotate(-35.82)"/><ellipse class="cls-10" cx="854.95" cy="540.98" rx="3.16" ry="5.52"/><ellipse class="cls-10" cx="859.69" cy="540.98" rx="6.41" ry="2.72" transform="translate(-101.14 870.43) rotate(-51.11)"/><ellipse class="cls-14" cx="202.2" cy="682.01" rx="3.79" ry="8.49" transform="translate(-360.91 247.35) rotate(-35.82)"/><ellipse class="cls-14" cx="208.63" cy="682.01" rx="4.29" ry="7.5"/><ellipse class="cls-14" cx="215.06" cy="682.01" rx="8.71" ry="3.69" transform="translate(-450.79 421.18) rotate(-51.11)"/><ellipse class="cls-14" cx="411.35" cy="781.01" rx="1.77" ry="3.96" transform="translate(-379.29 388.49) rotate(-35.82)"/><ellipse class="cls-14" cx="414.35" cy="781.01" rx="2" ry="3.5"/><ellipse class="cls-14" cx="417.35" cy="781.01" rx="4.06" ry="1.72" transform="translate(-452.56 615.47) rotate(-51.11)"/><ellipse class="cls-14" cx="244.68" cy="192.54" rx="3.04" ry="6.83" transform="translate(-66.4 179.62) rotate(-35.82)"/><ellipse class="cls-14" cx="249.85" cy="192.54" rx="3.45" ry="6.03"/><ellipse class="cls-14" cx="255.02" cy="192.54" rx="7" ry="2.97" transform="translate(-54.96 270.14) rotate(-51.11)"/><ellipse class="cls-14" cx="480.26" cy="701.46" rx="3" ry="6.73" transform="translate(-319.69 413.77) rotate(-35.82)"/><ellipse class="cls-14" cx="485.36" cy="701.46" rx="3.4" ry="5.95"/><ellipse class="cls-14" cx="490.46" cy="701.46" rx="6.91" ry="2.93" transform="translate(-363.44 642.77) rotate(-51.11)"/><ellipse class="cls-14" cx="279.35" cy="575.01" rx="1.77" ry="3.96" transform="translate(-283.69 272.27) rotate(-35.82)"/><ellipse class="cls-14" cx="282.35" cy="575.01" rx="2" ry="3.5"/><ellipse class="cls-14" cx="285.35" cy="575.01" rx="4.06" ry="1.72" transform="translate(-341.35 436.08) rotate(-51.11)"/><ellipse class="cls-15" cx="67.35" cy="778.01" rx="1.77" ry="3.96" transform="translate(-442.6 186.59) rotate(-35.82)"/><ellipse class="cls-15" cx="70.35" cy="778.01" rx="2" ry="3.5"/><ellipse class="cls-15" cx="73.35" cy="778.01" rx="4.06" ry="1.72" transform="translate(-578.24 346.62) rotate(-51.11)"/><ellipse class="cls-15" cx="446.35" cy="346.01" rx="1.77" ry="3.96" transform="translate(-118.08 326.69) rotate(-35.82)"/><ellipse class="cls-15" cx="449.35" cy="346.01" rx="2" ry="3.5"/><ellipse class="cls-15" cx="452.35" cy="346.01" rx="4.06" ry="1.72" transform="translate(-100.97 480.84) rotate(-51.11)"/><ellipse class="cls-15" cx="743.35" cy="277.01" rx="1.77" ry="3.96" transform="translate(-21.51 487.46) rotate(-35.82)"/><ellipse class="cls-15" cx="746.35" cy="277.01" rx="2" ry="3.5"/><ellipse class="cls-15" cx="749.35" cy="277.01" rx="4.06" ry="1.72" transform="translate(63.26 686.32) rotate(-51.11)"/><ellipse class="cls-15" cx="325.15" cy="132.35" rx="2.14" ry="4.65" transform="translate(-3.51 255.74) rotate(-42.73)"/><ellipse class="cls-15" cx="329.03" cy="132.35" rx="2.58" ry="3.85"/><ellipse class="cls-15" cx="332.91" cy="132.35" rx="4.8" ry="2.07" transform="translate(2.5 270.83) rotate(-44.42)"/><ellipse class="cls-15" cx="163.35" cy="512.01" rx="1.77" ry="3.96" transform="translate(-268.76 192.46) rotate(-35.82)"/><ellipse class="cls-15" cx="166.35" cy="512.01" rx="2" ry="3.5"/><ellipse class="cls-15" cx="169.35" cy="512.01" rx="4.06" ry="1.72" transform="translate(-335.48 322.35) rotate(-51.11)"/><rect class="cls-9" x="448.26" y="823.36" width="3.76" height="13.79" rx="1"/><circle class="cls-15" cx="446.38" cy="826.49" r="3.13"/><circle class="cls-15" cx="447.63" cy="822.73" r="3.13"/><circle class="cls-15" cx="450.14" cy="820.22" r="3.13"/><circle class="cls-15" cx="452.64" cy="823.98" r="3.13"/><circle class="cls-15" cx="451.39" cy="826.49" r="3.13"/><circle class="cls-15" cx="453.9" cy="827.74" r="3.13"/><rect class="cls-9" x="429.26" y="823.36" width="3.76" height="13.79" rx="1"/><circle class="cls-15" cx="427.38" cy="826.49" r="3.13"/><circle class="cls-15" cx="428.63" cy="822.73" r="3.13"/><circle class="cls-15" cx="431.14" cy="820.22" r="3.13"/><circle class="cls-15" cx="433.64" cy="823.98" r="3.13"/><circle class="cls-15" cx="432.39" cy="826.49" r="3.13"/><circle class="cls-15" cx="434.9" cy="827.74" r="3.13"/><rect class="cls-9" x="459.26" y="843.36" width="3.76" height="13.79" rx="1"/><circle class="cls-15" cx="457.38" cy="846.49" r="3.13"/><circle class="cls-15" cx="458.63" cy="842.73" r="3.13"/><circle class="cls-15" cx="461.14" cy="840.22" r="3.13"/><circle class="cls-15" cx="463.64" cy="843.98" r="3.13"/><circle class="cls-15" cx="462.39" cy="846.49" r="3.13"/><circle class="cls-15" cx="464.9" cy="847.74" r="3.13"/><rect class="cls-9" x="440.26" y="843.36" width="3.76" height="13.79" rx="1"/><circle class="cls-15" cx="438.38" cy="846.49" r="3.13"/><circle class="cls-15" cx="439.63" cy="842.73" r="3.13"/><circle class="cls-15" cx="442.14" cy="840.22" r="3.13"/><circle class="cls-15" cx="444.64" cy="843.98" r="3.13"/><circle class="cls-15" cx="443.39" cy="846.49" r="3.13"/><circle class="cls-15" cx="445.9" cy="847.74" r="3.13"/><rect class="cls-9" x="468.26" y="824.36" width="3.76" height="13.79" rx="1"/><circle class="cls-15" cx="466.38" cy="827.49" r="3.13"/><circle class="cls-15" cx="467.63" cy="823.73" r="3.13"/><circle class="cls-15" cx="470.14" cy="821.22" r="3.13"/><circle class="cls-15" cx="472.64" cy="824.98" r="3.13"/><circle class="cls-15" cx="471.39" cy="827.49" r="3.13"/><circle class="cls-15" cx="473.9" cy="828.74" r="3.13"/><rect class="cls-40" x="400.35" y="494.23" width="150" height="45.88"/><rect class="cls-41" x="454.72" y="460.51" width="6.17" height="80"/><rect class="cls-41" x="490.2" y="460.51" width="6.17" height="80"/><rect class="cls-41" x="460.12" y="460.51" width="32.39" height="12.55"/><rect class="cls-41" x="462.44" y="508.35" width="26.22" height="10.2"/><rect x="429.27" y="494.23" width="14.65" height="6.27"/><rect class="cls-42" x="429.27" y="500.51" width="14.65" height="13.33"/><rect x="429.27" y="513.84" width="14.65" height="6.27"/><rect x="429.27" y="533.45" width="14.65" height="6.27"/><rect class="cls-42" x="429.27" y="520.12" width="14.65" height="13.33"/><rect x="407.68" y="494.23" width="14.65" height="6.27"/><rect class="cls-42" x="407.68" y="500.51" width="14.65" height="13.33"/><rect x="407.68" y="513.84" width="14.65" height="6.27"/><rect x="407.68" y="533.45" width="14.65" height="6.27"/><rect class="cls-42" x="407.68" y="520.12" width="14.65" height="13.33"/><rect x="528.76" y="494.23" width="14.65" height="6.27"/><rect class="cls-42" x="528.76" y="500.51" width="14.65" height="13.33"/><rect x="528.76" y="513.84" width="14.65" height="6.27"/><rect x="528.76" y="533.45" width="14.65" height="6.27"/><rect class="cls-42" x="528.76" y="520.12" width="14.65" height="13.33"/><rect x="507.17" y="494.23" width="14.65" height="6.27"/><rect class="cls-42" x="507.17" y="500.51" width="14.65" height="13.33"/><rect x="507.17" y="513.84" width="14.65" height="6.27"/><rect x="507.17" y="533.45" width="14.65" height="6.27"/><rect class="cls-42" x="507.17" y="520.12" width="14.65" height="13.33"/><line class="cls-33" x1="475.16" y1="473.06" x2="475.16" y2="478.16"/><ellipse class="cls-33" cx="475.16" cy="485.21" rx="6.94" ry="7.06"/><line class="cls-33" x1="475.16" y1="492.67" x2="475.16" y2="508.35"/><line class="cls-33" x1="475.16" y1="485.61" x2="475.16" y2="481.68"/><line class="cls-33" x1="475.16" y1="485.21" x2="479.02" y2="489.14"/><path class="cls-43" d="M333.07,325.55h35.8a8.84,8.84,0,0,1,8.84,8.84v3.73a5.62,5.62,0,0,1-5.62,5.62h-39a5.62,5.62,0,0,1-5.62-5.62v-7a5.62,5.62,0,0,1,5.62-5.62Z" transform="translate(-109.25 486.36) rotate(-61.69)"/><rect class="cls-43" x="325.56" y="317.99" width="33.8" height="23.4" rx="9.3" transform="translate(-110.21 474.84) rotate(-61.69)"/><path class="cls-41" d="M336.87,331.79h3.2a0,0,0,0,1,0,0V337a0,0,0,0,1,0,0h-5.2a0,0,0,0,1,0,0v-3.2A2,2,0,0,1,336.87,331.79Z" transform="translate(-116.96 472.92) rotate(-61.69)"/><path class="cls-41" d="M341,320.34h3.2a2,2,0,0,1,2,2v3.2a0,0,0,0,1,0,0H341a0,0,0,0,1,0,0v-5.2A0,0,0,0,1,341,320.34Z" transform="translate(-103.65 472.33) rotate(-61.69)"/><circle class="cls-43" cx="367.41" cy="331.81" r="4.33"/><circle class="cls-43" cx="358.36" cy="348.59" r="4.33"/><path class="cls-44" d="M353.56,315.49l3.79,2.09,3.29-6.11S357.12,310.27,353.56,315.49Z"/><path class="cls-45" d="M243.08,635.51h29.28a9,9,0,0,1,9,9v1.21a5.72,5.72,0,0,1-5.72,5.72H243.08a5.72,5.72,0,0,1-5.72-5.72v-4.49a5.72,5.72,0,0,1,5.72-5.72Z"/><rect class="cls-45" x="244.18" y="623.37" width="29.59" height="20.48" rx="9.3"/><path class="cls-41" d="M253,629.44h2.55a0,0,0,0,1,0,0V634a0,0,0,0,1,0,0H251a0,0,0,0,1,0,0v-2.55A2,2,0,0,1,253,629.44Z"/><path class="cls-41" d="M262.39,629.44h2.55a2,2,0,0,1,2,2V634a0,0,0,0,1,0,0h-4.55a0,0,0,0,1,0,0v-4.55A0,0,0,0,1,262.39,629.44Z"/><circle class="cls-43" cx="267.7" cy="653.72" r="3.79"/><circle class="cls-43" cx="251.01" cy="653.72" r="3.79"/><path class="cls-44" d="M274.53,636.27l0,3.79h6.07S280,636.85,274.53,636.27Z"/><rect class="cls-46" x="864.39" y="559.93" width="25.31" height="25.31" rx="5.6"/><rect class="cls-47" x="866.66" y="562.2" width="20.76" height="20.76" rx="3.26"/><line class="cls-46" x1="871.17" y1="554.24" x2="871.17" y2="559.64"/><line class="cls-46" x1="874.01" y1="554.24" x2="874.01" y2="559.64"/><line class="cls-46" x1="877.42" y1="554.24" x2="877.42" y2="559.64"/><line class="cls-46" x1="880.55" y1="554.24" x2="880.55" y2="559.64"/><line class="cls-46" x1="883.68" y1="554.24" x2="883.68" y2="559.64"/><line class="cls-46" x1="871.17" y1="585.79" x2="871.17" y2="591.19"/><line class="cls-46" x1="874.01" y1="585.79" x2="874.01" y2="591.19"/><line class="cls-46" x1="877.42" y1="585.79" x2="877.42" y2="591.19"/><line class="cls-46" x1="880.55" y1="585.79" x2="880.55" y2="591.19"/><line class="cls-46" x1="883.68" y1="585.79" x2="883.68" y2="591.19"/><line class="cls-46" x1="895.49" y1="566.06" x2="890.09" y2="566.06"/><line class="cls-46" x1="895.49" y1="568.9" x2="890.09" y2="568.9"/><line class="cls-46" x1="895.49" y1="572.31" x2="890.09" y2="572.31"/><line class="cls-46" x1="895.49" y1="575.44" x2="890.09" y2="575.44"/><line class="cls-46" x1="895.49" y1="578.57" x2="890.09" y2="578.57"/><line class="cls-46" x1="864.76" y1="566.06" x2="859.35" y2="566.06"/><line class="cls-46" x1="864.76" y1="568.9" x2="859.35" y2="568.9"/><line class="cls-46" x1="864.76" y1="572.31" x2="859.35" y2="572.31"/><line class="cls-46" x1="864.76" y1="575.44" x2="859.35" y2="575.44"/><line class="cls-46" x1="864.76" y1="578.57" x2="859.35" y2="578.57"/><use transform="translate(353.35 82.51) scale(0.08)" xlink:href="#image"/><use transform="translate(20.35 677.51) scale(0.08)" xlink:href="#image"/><path class="cls-48" d="M571.29,268.9V280c-30.81,17.3-55.75,0-55.75,0V268.9"/><path class="cls-49" d="M515.54,268.9c0,7.64,12.48,13.84,27.88,13.84s27.87-6.2,27.87-13.84-12.48-13.85-27.87-13.85-27.88,6.2-27.88,13.85"/><path class="cls-50" d="M525.39,269.55l-2.3,0a.68.68,0,0,1-.7-.64l-.55-34a.65.65,0,0,1,.67-.65l2.3,0a.65.65,0,0,1,.69.63l.56,34A.67.67,0,0,1,525.39,269.55Z"/><path class="cls-50" d="M565,269.55l-2.3,0a.68.68,0,0,1-.7-.64l-.55-34a.65.65,0,0,1,.67-.65l2.3,0a.65.65,0,0,1,.69.63l.56,34A.67.67,0,0,1,565,269.55Z"/><path class="cls-50" d="M544.49,265.4l-2.37,0a.63.63,0,0,1-.66-.6l-.49-30.6a.63.63,0,0,1,.63-.63l2.37,0a.62.62,0,0,1,.66.6l.5,30.61A.63.63,0,0,1,544.49,265.4Z"/><path class="cls-51" d="M510.69,233.51c9.19,3,35.56,9.79,65.32.53a2,2,0,0,0,.68-3.47c-14.21-10.77-27.66-22-31.87-25.58a2.22,2.22,0,0,0-2.77,0l-32,25.13A2,2,0,0,0,510.69,233.51Z"/><path class="cls-30" d="M510.69,232.12c9.19,3,35.56,9.8,65.32.54a2,2,0,0,0,.68-3.47c-14.21-10.77-27.66-22-31.87-25.58a2.21,2.21,0,0,0-2.77,0l-32,25.12A2,2,0,0,0,510.69,232.12Z"/><image width="512" height="512" transform="translate(533.35 242.51) scale(0.04)" xlink:href="C:%5CUsers%5Cannna%5CDownloads%5Cfree-icon-horse-7683751.png"/><use transform="translate(608.35 443.51) scale(0.02)" xlink:href="#image-2"/><use transform="translate(627.35 442.51) scale(0.01)" xlink:href="#image-2"/><use transform="translate(595.35 434.51) scale(0.02)" xlink:href="#image-2"/><use transform="translate(114.35 617.51) scale(0.02)" xlink:href="#image-2"/><path class="cls-39" d="M639.35,452.51a7.13,7.13,0,0,0,6.2-2.72c1.61,2.44,3.59,4.28,6.7,0,3.21,2.44,2.74,5,5.92,1.38,2.36,1.68,1.66,3.29,5.42,1.82"/><path class="cls-39" d="M569.35,458.51a7.13,7.13,0,0,0,6.2-2.72c1.61,2.44,3.59,4.28,6.7,0,3.21,2.44,2.74,5,5.92,1.38,2.36,1.68,1.66,3.29,5.42,1.82"/><path class="cls-39" d="M679.57,466.1a25.27,25.27,0,0,0,6.39-2.42,4.55,4.55,0,0,0,6.26,0,18.23,18.23,0,0,0,4.83,1.89"/><path class="cls-39" d="M613.57,462.1a25.27,25.27,0,0,0,6.39-2.42,4.55,4.55,0,0,0,6.26,0,18.23,18.23,0,0,0,4.83,1.89"/><path class="cls-39" d="M557.57,439.1a25.27,25.27,0,0,0,6.39-2.42,4.55,4.55,0,0,0,6.26,0,18.23,18.23,0,0,0,4.83,1.89"/><path class="cls-39" d="M509.57,448.1a25.27,25.27,0,0,0,6.39-2.42,4.55,4.55,0,0,0,6.26,0,18.23,18.23,0,0,0,4.83,1.89"/><path class="cls-39" d="M453.57,434.1a25.27,25.27,0,0,0,6.39-2.42,4.55,4.55,0,0,0,6.26,0,18.23,18.23,0,0,0,4.83,1.89"/><path class="cls-39" d="M86.57,567.1A25.27,25.27,0,0,0,93,564.68a4.55,4.55,0,0,0,6.26,0,18.23,18.23,0,0,0,4.83,1.89"/><path class="cls-39" d="M77.57,580.1A25.27,25.27,0,0,0,84,577.68a4.55,4.55,0,0,0,6.26,0,18.23,18.23,0,0,0,4.83,1.89"/><path class="cls-39" d="M105.57,591.1a25.27,25.27,0,0,0,6.39-2.42,4.55,4.55,0,0,0,6.26,0,18.23,18.23,0,0,0,4.83,1.89"/><path class="cls-39" d="M86.57,605.1A25.27,25.27,0,0,0,93,602.68a4.55,4.55,0,0,0,6.26,0,18.23,18.23,0,0,0,4.83,1.89"/><path class="cls-39" d="M115.57,614.1a25.27,25.27,0,0,0,6.39-2.42,4.55,4.55,0,0,0,6.26,0,18.23,18.23,0,0,0,4.83,1.89"/><path class="cls-38" d="M803.41,589.4s-4.48-19-17-18.79-16.22,5.23-16.22,5.23-5.26,4.47-.87,10.76,10.52-1.38,10.52-1.38,4-12.1-4.51-15.8S754,578.36,754,578.36s-1.53,17.55,14.41,21.85,18.3-4.23,18.3-4.23,8.06-6.79,12.47,1.16-6.34,13.49-6.34,13.49-6.34,13.36,5.61,14.54,14.42-10.29,14.42-10.29,6-6.55,14.12,1.3,13.26-6.93,13.26-6.93S834.33,595,824,600.47,803.41,589.4,803.41,589.4Z"/><path class="cls-38" d="M792.86,610.63s14.88-9.3,20,4.25,0,19.86,0,19.86-20,5.32-21.91-5.2,16.89-8.16,20-2.69,17.5,7.66,17.75,21,24.5,14.17,24.5,14.17,26.3-5,15.5-19.71-32.1-9.39-32.1-9.39-15.83-9.44,0-13.64,3.62-10.07,3.62-10.07"/><path class="cls-52" d="M812.84,569.7a24.08,24.08,0,0,0-7.31,5.13,17.42,17.42,0,0,0-5.13,13.79c10,1,11,.5,11,.5l3-11,1.49-6Z"/><path class="cls-53" d="M805.13,574.71a7.63,7.63,0,0,0,8.78,4.76l1.78-7.78-3-2.24Z"/><path class="cls-53" d="M814.09,578s6.46,1.83,8.69,1.61c1.41-1,3.75-4.67,3.75-4.67l-1-1.67-3.81,3.18-6.24-4.5Z"/><polygon class="cls-53" points="813.68 580.59 817.08 583.39 817.79 581.99 813.98 579.47 813.68 580.59"/><path class="cls-53" d="M812.84,569.7v-6.65s2.24-3,6.72-.56l-.25.4c-2.23,3.65-2.23,4.57-2.23,4.57l2.48,1.69-3.87,2.73Z"/><path class="cls-52" d="M819.56,562.49s3.24,2.62,0,6.66c-2-1.88-2.48-1.69-2.48-1.69Z"/><polygon class="cls-54" points="800.44 588.8 799.35 593.65 791.94 599.65 794.43 603.64 802.89 596.67 806.37 591.69 809.62 593.65 814.69 604.3 819.44 604.3 815.21 594.43 811.85 587.68 800.44 588.8"/><polygon class="cls-55" points="791.94 599.58 787.96 604.05 793.93 606.54 792.93 604.05 794.43 602.55 791.94 599.58"/><path class="cls-55" d="M814.69,604.21l1.39,4.82h6.69s.38-2.33-1-2.41a17.15,17.15,0,0,0-2.29,0v-2.41Z"/><polygon class="cls-55" points="817.08 583.39 818.57 584.39 819.28 583.39 817.79 581.99 817.08 583.39"/><polygon class="cls-55" points="826.53 574.93 828.68 574.53 828.03 572.44 825.52 573.26 826.53 574.93"/><line class="cls-56" x1="826.53" y1="570.94" x2="834.5" y2="607.78"/><line class="cls-56" x1="833.11" y1="606.62" x2="835.24" y2="606.04"/><line class="cls-56" x1="819.11" y1="581.18" x2="785.22" y2="600.81"/><line class="cls-56" x1="785.97" y1="598.57" x2="786.95" y2="600.81"/><polyline class="cls-57" points="802.16 609.89 838.66 609.03 843.43 606.62"/><polyline class="cls-57" points="777 600.56 811.35 613.01 817.08 613.01"/><rect class="cls-58" x="480.39" y="184.66" width="0.94" height="16.91"/><rect class="cls-58" x="480.07" y="197.24" width="1.72" height="7.27"/><rect class="cls-58" x="479.45" y="204.51" width="2.97" height="0.56"/><ellipse class="cls-59" cx="480.85" cy="181.31" rx="2.5" ry="2.24"/><polygon class="cls-58" points="482.37 183.04 480.85 185.39 479.34 183.04 482.37 183.04"/><rect class="cls-58" x="486.39" y="195.63" width="0.94" height="16.91"/><rect class="cls-58" x="486.07" y="208.21" width="1.72" height="7.27"/><rect class="cls-58" x="485.45" y="215.48" width="2.97" height="0.56"/><ellipse class="cls-59" cx="486.85" cy="192.27" rx="2.5" ry="2.24"/><polygon class="cls-58" points="488.37 194 486.85 196.35 485.34 194 488.37 194"/><rect class="cls-58" x="495.39" y="208.1" width="0.94" height="16.91"/><rect class="cls-58" x="495.07" y="220.68" width="1.72" height="7.27"/><rect class="cls-58" x="494.45" y="227.95" width="2.97" height="0.56"/><ellipse class="cls-59" cx="495.85" cy="204.74" rx="2.5" ry="2.24"/><polygon class="cls-58" points="497.37 206.48 495.85 208.83 494.34 206.48 497.37 206.48"/><rect class="cls-58" x="144.21" y="550.92" width="1.32" height="23.76"/><rect class="cls-58" x="143.77" y="568.59" width="2.41" height="10.21"/><rect class="cls-58" x="142.89" y="578.8" width="4.17" height="0.79"/><ellipse class="cls-59" cx="144.87" cy="546.21" rx="3.51" ry="3.14"/><polygon class="cls-58" points="146.99 548.65 144.87 551.95 142.74 548.65 146.99 548.65"/><rect class="cls-58" x="152.63" y="566.32" width="1.32" height="23.76"/><rect class="cls-58" x="152.2" y="583.99" width="2.41" height="10.21"/><rect class="cls-58" x="151.32" y="594.2" width="4.17" height="0.79"/><ellipse class="cls-59" cx="153.29" cy="561.61" rx="3.51" ry="3.14"/><polygon class="cls-58" points="155.42 564.05 153.29 567.35 151.16 564.05 155.42 564.05"/><rect class="cls-58" x="165.28" y="583.84" width="1.32" height="23.76"/><rect class="cls-58" x="164.84" y="601.51" width="2.41" height="10.21"/><rect class="cls-58" x="163.96" y="611.72" width="4.17" height="0.79"/><ellipse class="cls-59" cx="165.93" cy="579.13" rx="3.51" ry="3.14"/><polygon class="cls-58" points="168.06 581.57 165.93 584.86 163.81 581.57 168.06 581.57"/><rect class="cls-58" x="547.75" y="398.66" width="1.37" height="24.66"/><rect class="cls-58" x="547.29" y="417" width="2.51" height="10.6"/><rect class="cls-58" x="546.38" y="427.6" width="4.33" height="0.82"/><ellipse class="cls-59" cx="548.43" cy="393.77" rx="3.64" ry="3.26"/><polygon class="cls-58" points="550.64 396.3 548.43 399.72 546.22 396.3 550.64 396.3"/><rect class="cls-58" x="562.62" y="391.07" width="1.37" height="24.66"/><rect class="cls-58" x="562.16" y="409.41" width="2.51" height="10.6"/><rect class="cls-58" x="561.25" y="420" width="4.33" height="0.82"/><ellipse class="cls-59" cx="563.3" cy="386.17" rx="3.64" ry="3.26"/><polygon class="cls-58" points="565.51 388.7 563.3 392.13 561.09 388.7 565.51 388.7"/><rect class="cls-58" x="580.03" y="395.76" width="1.37" height="24.66"/><rect class="cls-58" x="579.57" y="414.1" width="2.51" height="10.6"/><rect class="cls-58" x="578.66" y="424.69" width="4.33" height="0.82"/><ellipse class="cls-59" cx="580.71" cy="390.86" rx="3.64" ry="3.26"/><polygon class="cls-58" points="582.92 393.39 580.71 396.81 578.5 393.39 582.92 393.39"/><path class="cls-60" d="M559.35,569.51s18.45,7.74,26.48,0"/><path class="cls-60" d="M585.9,570.06s-12,22-26.86-.52"/><path class="cls-60" d="M559.35,568.92s9.95-11.91,26,.59"/><polygon class="cls-61" points="567.35 610.51 565.35 610.51 565.35 548.51 567.35 551.51 567.35 610.51"/><rect class="cls-61" x="575.35" y="572.51" width="2" height="38"/><rect class="cls-62" x="569.35" y="572.51" width="2" height="38"/><circle class="cls-63" cx="573.35" cy="568.51" r="9"/><rect class="cls-64" x="564.35" y="603.51" width="15" height="3"/><path class="cls-60" d="M586.27,569.51c-5.42-6.5-26.92,0-26.92,0"/><path class="cls-60" d="M585.35,568.67c-10.5-23.66-26,.84-26,.84s15.5,12.5,26.48,0"/><polygon class="cls-65" points="206.23 625.1 205.91 625.22 206.3 626.51 205.38 625.36 205.93 624.81 206.23 625.1"/><polygon class="cls-66" points="213.54 592.67 213.8 590.92 215.41 590.92 215.41 588.02 213.12 588.9 213.12 591.54 213.54 592.67"/><polygon class="cls-67" points="210.64 604.77 209.1 614.67 205.33 624.6 206.76 625.61 211.93 616.58 213.87 609.63 220.98 624.91 222.28 624.22 216.82 605.47 210.64 604.77"/><path class="cls-68" d="M210.18,605.44h7.22l-1.85-4.7.68-3.36V596l-.68-1.34-1.34-2s-1.34-2-2.69-.67c-.67,1.34-1.34,2.6-1.34,2.6Z"/><polyline class="cls-68" points="220.33 603.39 219.27 604.12 214.17 598.91 214.71 597.47 220.18 602.86"/><path class="cls-69" d="M211.61,585.39l-6,6.15s.49,7.18,3.86,3.15,3.87-2.85,3.87-2.85l.16-2.53,2.54-1.49s1.5-3-4.55-2.43"/><path class="cls-66" d="M219.42,604s1.34.89.75-.52"/><polygon class="cls-65" points="221.59 624.59 221.6 624.93 222.95 624.93 221.59 625.48 221.21 624.79 221.59 624.59"/><polygon class="cls-65" points="181.02 612.82 180.63 612.96 181.09 614.51 179.99 613.13 180.66 612.46 181.02 612.82"/><polygon class="cls-70" points="186.31 588.41 184.46 600.3 179.94 612.21 181.65 613.42 187.86 602.58 190.19 594.24 198.73 612.59 200.28 611.76 193.73 589.25 186.31 588.41"/><polygon class="cls-66" points="189.79 573.88 190.1 571.77 192.03 571.77 192.03 568.3 189.28 569.35 189.28 572.52 189.79 573.88"/><path class="cls-71" d="M185.75,589.21h8.67l-2.21-5.65.81-4v-1.62l-.81-1.61-1.61-2.42s-1.62-2.42-3.23-.81c-.81,1.62-1.62,3.12-1.62,3.12Z"/><polyline class="cls-71" points="197.94 586.75 196.67 587.63 190.55 581.37 191.19 579.64 197.76 586.11"/><path class="cls-66" d="M196.85,587.5s1.61,1.08.9-.62"/><polygon class="cls-65" points="199.45 612.2 199.47 612.62 201.09 612.62 199.45 613.28 199 612.44 199.45 612.2"/><path class="cls-72" d="M190.66,568.83s5.75-2.32.74-2.32a22.44,22.44,0,0,0-4,1.79v4.22h1.87v-3.17Z"/><rect class="cls-73" x="482.74" y="263.44" width="4.66" height="2.79"/><rect class="cls-73" x="485.54" y="262.51" width="0.93" height="1.86"/><polygon class="cls-74" points="467.85 289.51 466.92 324.89 468.7 324.89 473.43 292.3 478.9 324.89 481.45 324.89 478.72 289.51 467.85 289.51"/><polygon class="cls-75" points="467.85 290.44 467.85 278.32 466.92 281.54 467.38 282.59 467.38 284.38 465.05 282.68 465.05 281.92 466.92 272.01 471.57 271.04 477.81 271.04 482.74 272.98 485.54 267.16 487.4 268.13 483.68 275.89 478.09 274.92 479.02 289.47 467.85 290.44"/><polygon class="cls-76" points="485.91 267.16 487.4 263.84 487.4 266.12 488.19 267.16 487.4 267.67 485.91 267.16"/><polygon class="cls-76" points="473.43 270.89 473.43 269.49 475.44 269.49 475.44 265.76 472.8 265.76 471.57 269.03 471.57 271.04 473.43 270.89"/><path class="cls-77" d="M471.57,270s-7.45-3.73.93-7.45a4.09,4.09,0,0,1,3.73,2.63l-.34,1.09h-1.71A4.08,4.08,0,0,0,471.57,270Z"/><polygon class="cls-77" points="466.92 324.89 464.12 325.82 464.12 326.51 468.52 326.51 467.97 324.89 466.92 324.89"/><polygon class="cls-77" points="479.95 324.89 479.59 326.51 483.17 326.51 483.17 325.7 481.38 325.36 479.95 324.89"/><rect class="cls-73" x="751.35" y="815.51" width="1"/><polygon class="cls-78" points="275.05 424.85 274.11 459.68 276.36 459.68 280.7 427.68 286.58 459.68 288.98 459.68 286.35 423.91 275.05 424.85"/><polygon class="cls-79" points="275.99 406.03 275.05 424.85 286.35 423.91 285.41 406.03 275.99 406.03"/><polygon class="cls-80" points="276.11 406.03 270.38 415.44 271.39 417.32 279.76 419.21 279.76 416.25 274.53 415.05 276.32 411.46 276.11 406.03"/><polygon class="cls-81" points="287.29 415.44 286 417.32 286.64 419.21 288.23 417.32 287.29 415.44"/><polygon class="cls-80" points="285.41 406.03 290.13 415.44 288.23 418.26 286.9 415.44 287.29 414.5 285.65 410.67 285.41 406.03"/><rect class="cls-82" x="279.76" y="413.56" width="7.53" height="9.41"/><polygon class="cls-83" points="280.96 406.03 280.7 403.75 282.58 403.2 282.58 399.46 279 399.46 278.82 400.38 278.82 406.03 280.96 406.03"/><path class="cls-84" d="M282.58,399.46s3.77-3,.94-2.95-6.67,0-6.67,0-1.76,4.83,1,6.23a12.8,12.8,0,0,0,1.1-3.28Z"/><polygon class="cls-84" points="276.93 462.51 276.36 459.68 274.11 459.68 274.11 460.63 271.99 461.57 271.99 462.29 276.93 462.51"/><polygon class="cls-84" points="286.58 459.68 286.35 462.51 291.05 462.51 291.05 461.37 289.44 461.1 288.98 459.68 286.58 459.68"/><ellipse class="cls-10" cx="99.58" cy="673.86" rx="1.48" ry="2.23" transform="translate(-577.44 749.01) rotate(-87.93)"/><ellipse class="cls-10" cx="99.42" cy="678.31" rx="1.48" ry="2.23" transform="translate(-582.04 753.14) rotate(-87.93)"/><ellipse class="cls-10" cx="99.26" cy="682.76" rx="1.48" ry="2.23" transform="translate(-586.64 757.27) rotate(-87.93)"/><ellipse class="cls-10" cx="93.6" cy="675.13" rx="1.48" ry="2.23" transform="translate(-584.47 744.25) rotate(-87.93)"/><ellipse class="cls-10" cx="93.44" cy="679.58" rx="1.48" ry="2.23" transform="translate(-589.07 748.38) rotate(-87.93)"/><ellipse class="cls-10" cx="93.28" cy="684.02" rx="1.48" ry="2.23" transform="translate(-593.67 752.51) rotate(-87.93)"/><ellipse class="cls-10" cx="83.17" cy="676.24" rx="1.48" ry="2.23" transform="translate(-595.63 734.9) rotate(-87.93)"/><ellipse class="cls-10" cx="83.01" cy="680.68" rx="1.48" ry="2.23" transform="translate(-600.23 739.02) rotate(-87.93)"/><ellipse class="cls-10" cx="82.84" cy="685.13" rx="1.48" ry="2.23" transform="matrix(0.04, -1, 1, 0.04, -604.84, 743.15)"/><ellipse class="cls-10" cx="78.61" cy="679.04" rx="1.48" ry="2.23" transform="translate(-602.83 733.05) rotate(-87.93)"/><ellipse class="cls-10" cx="78.45" cy="683.49" rx="1.48" ry="2.23" transform="translate(-607.43 737.17) rotate(-87.93)"/><ellipse class="cls-10" cx="99.1" cy="687.21" rx="1.48" ry="2.23" transform="translate(-591.24 761.39) rotate(-87.93)"/><ellipse class="cls-10" cx="87.72" cy="673.43" rx="1.48" ry="2.23" transform="translate(-588.44 736.74) rotate(-87.93)"/><ellipse class="cls-10" cx="87.56" cy="677.88" rx="1.48" ry="2.23" transform="translate(-593.04 740.87) rotate(-87.93)"/><ellipse class="cls-10" cx="87.4" cy="682.33" rx="1.48" ry="2.23" transform="matrix(0.04, -1, 1, 0.04, -597.64, 745)"/><ellipse class="cls-10" cx="87.24" cy="686.78" rx="1.48" ry="2.23" transform="translate(-602.24 749.12) rotate(-87.93)"/><ellipse class="cls-10" cx="729.58" cy="575.86" rx="1.48" ry="2.23" transform="translate(127.72 1284.14) rotate(-87.93)"/><ellipse class="cls-10" cx="729.42" cy="580.31" rx="1.48" ry="2.23" transform="matrix(0.04, -1, 1, 0.04, 123.12, 1288.27)"/><ellipse class="cls-10" cx="729.26" cy="584.76" rx="1.48" ry="2.23" transform="matrix(0.04, -1, 1, 0.04, 118.52, 1292.4)"/><ellipse class="cls-10" cx="723.6" cy="577.13" rx="1.48" ry="2.23" transform="translate(120.68 1279.39) rotate(-87.93)"/><ellipse class="cls-10" cx="723.44" cy="581.58" rx="1.48" ry="2.23" transform="matrix(0.04, -1, 1, 0.04, 116.08, 1283.51)"/><ellipse class="cls-10" cx="723.28" cy="586.02" rx="1.48" ry="2.23" transform="translate(111.48 1287.64) rotate(-87.93)"/><ellipse class="cls-10" cx="713.17" cy="578.24" rx="1.48" ry="2.23" transform="translate(109.52 1270.03) rotate(-87.93)"/><ellipse class="cls-10" cx="713.01" cy="582.68" rx="1.48" ry="2.23" transform="translate(104.92 1274.15) rotate(-87.93)"/><ellipse class="cls-10" cx="712.84" cy="587.13" rx="1.48" ry="2.23" transform="matrix(0.04, -1, 1, 0.04, 100.32, 1278.28)"/><ellipse class="cls-10" cx="708.61" cy="581.04" rx="1.48" ry="2.23" transform="translate(102.33 1268.18) rotate(-87.93)"/><ellipse class="cls-10" cx="708.45" cy="585.49" rx="1.48" ry="2.23" transform="matrix(0.04, -1, 1, 0.04, 97.73, 1272.3)"/><ellipse class="cls-10" cx="729.1" cy="589.21" rx="1.48" ry="2.23" transform="translate(113.92 1296.52) rotate(-87.93)"/><ellipse class="cls-10" cx="717.72" cy="575.43" rx="1.48" ry="2.23" transform="translate(116.72 1271.88) rotate(-87.93)"/><ellipse class="cls-10" cx="717.56" cy="579.88" rx="1.48" ry="2.23" transform="translate(112.11 1276) rotate(-87.93)"/><ellipse class="cls-10" cx="717.4" cy="584.33" rx="1.48" ry="2.23" transform="translate(107.51 1280.13) rotate(-87.93)"/><ellipse class="cls-10" cx="717.24" cy="588.78" rx="1.48" ry="2.23" transform="translate(102.91 1284.26) rotate(-87.93)"/><ellipse class="cls-10" cx="926.58" cy="408.86" rx="1.48" ry="2.23" transform="translate(484.49 1320.05) rotate(-87.93)"/><ellipse class="cls-10" cx="926.42" cy="413.31" rx="1.48" ry="2.23" transform="matrix(0.04, -1, 1, 0.04, 479.89, 1324.18)"/><ellipse class="cls-10" cx="926.26" cy="417.76" rx="1.48" ry="2.23" transform="matrix(0.04, -1, 1, 0.04, 475.29, 1328.31)"/><ellipse class="cls-10" cx="920.6" cy="410.13" rx="1.48" ry="2.23" transform="translate(477.45 1315.3) rotate(-87.93)"/><ellipse class="cls-10" cx="920.44" cy="414.58" rx="1.48" ry="2.23" transform="matrix(0.04, -1, 1, 0.04, 472.85, 1319.42)"/><ellipse class="cls-10" cx="920.28" cy="419.02" rx="1.48" ry="2.23" transform="translate(468.25 1323.55) rotate(-87.93)"/><ellipse class="cls-10" cx="910.17" cy="411.24" rx="1.48" ry="2.23" transform="translate(466.29 1305.94) rotate(-87.93)"/><ellipse class="cls-10" cx="910.01" cy="415.68" rx="1.48" ry="2.23" transform="translate(461.69 1310.06) rotate(-87.93)"/><ellipse class="cls-10" cx="909.84" cy="420.13" rx="1.48" ry="2.23" transform="matrix(0.04, -1, 1, 0.04, 457.09, 1314.19)"/><ellipse class="cls-10" cx="905.61" cy="414.04" rx="1.48" ry="2.23" transform="translate(459.1 1304.09) rotate(-87.93)"/><ellipse class="cls-10" cx="905.45" cy="418.49" rx="1.48" ry="2.23" transform="matrix(0.04, -1, 1, 0.04, 454.49, 1308.21)"/><ellipse class="cls-10" cx="926.1" cy="422.21" rx="1.48" ry="2.23" transform="translate(470.69 1332.43) rotate(-87.93)"/><ellipse class="cls-10" cx="914.72" cy="408.43" rx="1.48" ry="2.23" transform="translate(473.48 1307.79) rotate(-87.93)"/><ellipse class="cls-10" cx="914.56" cy="412.88" rx="1.48" ry="2.23" transform="translate(468.88 1311.91) rotate(-87.93)"/><ellipse class="cls-10" cx="914.4" cy="417.33" rx="1.48" ry="2.23" transform="translate(464.28 1316.04) rotate(-87.93)"/><ellipse class="cls-10" cx="914.24" cy="421.78" rx="1.48" ry="2.23" transform="translate(459.68 1320.17) rotate(-87.93)"/><ellipse class="cls-10" cx="255.01" cy="423.76" rx="1" ry="1.5" transform="translate(-177.7 663.29) rotate(-87.93)"/><ellipse class="cls-10" cx="254.9" cy="426.76" rx="1" ry="1.5" transform="translate(-180.8 666.07) rotate(-87.93)"/><ellipse class="cls-10" cx="254.8" cy="429.76" rx="1" ry="1.5" transform="matrix(0.04, -1, 1, 0.04, -183.9, 668.85)"/><ellipse class="cls-10" cx="250.98" cy="424.62" rx="1" ry="1.5" transform="matrix(0.04, -1, 1, 0.04, -182.44, 660.08)"/><ellipse class="cls-10" cx="250.87" cy="427.62" rx="1" ry="1.5" transform="translate(-185.54 662.86) rotate(-87.93)"/><ellipse class="cls-10" cx="250.76" cy="430.62" rx="1" ry="1.5" transform="translate(-188.64 665.64) rotate(-87.93)"/><ellipse class="cls-10" cx="243.95" cy="425.37" rx="1" ry="1.5" transform="translate(-189.96 653.77) rotate(-87.93)"/><ellipse class="cls-10" cx="243.84" cy="428.36" rx="1" ry="1.5" transform="translate(-193.06 656.55) rotate(-87.93)"/><ellipse class="cls-10" cx="243.73" cy="431.36" rx="1" ry="1.5" transform="translate(-196.16 659.33) rotate(-87.93)"/><ellipse class="cls-10" cx="240.88" cy="427.26" rx="1" ry="1.5" transform="matrix(0.04, -1, 1, 0.04, -194.81, 652.53)"/><ellipse class="cls-10" cx="240.77" cy="430.25" rx="1" ry="1.5" transform="translate(-197.91 655.31) rotate(-87.93)"/><ellipse class="cls-10" cx="254.69" cy="432.76" rx="1" ry="1.5" transform="matrix(0.04, -1, 1, 0.04, -187, 671.63)"/><ellipse class="cls-10" cx="247.02" cy="423.48" rx="1" ry="1.5" transform="translate(-185.11 655.02) rotate(-87.93)"/><ellipse class="cls-10" cx="246.91" cy="426.47" rx="1" ry="1.5" transform="translate(-188.21 657.8) rotate(-87.93)"/><ellipse class="cls-10" cx="246.8" cy="429.47" rx="1" ry="1.5" transform="translate(-191.31 660.58) rotate(-87.93)"/><ellipse class="cls-10" cx="246.69" cy="432.47" rx="1" ry="1.5" transform="translate(-194.41 663.36) rotate(-87.93)"/><ellipse class="cls-10" cx="264.01" cy="290.76" rx="1" ry="1.5" transform="translate(-36.11 544.09) rotate(-87.93)"/><ellipse class="cls-10" cx="263.9" cy="293.76" rx="1" ry="1.5" transform="translate(-39.21 546.87) rotate(-87.93)"/><ellipse class="cls-10" cx="263.8" cy="296.76" rx="1" ry="1.5" transform="matrix(0.04, -1, 1, 0.04, -42.31, 549.65)"/><ellipse class="cls-10" cx="259.98" cy="291.62" rx="1" ry="1.5" transform="matrix(0.04, -1, 1, 0.04, -40.85, 540.88)"/><ellipse class="cls-10" cx="259.87" cy="294.62" rx="1" ry="1.5" transform="translate(-43.95 543.66) rotate(-87.93)"/><ellipse class="cls-10" cx="259.76" cy="297.62" rx="1" ry="1.5" transform="translate(-47.05 546.45) rotate(-87.93)"/><ellipse class="cls-10" cx="252.95" cy="292.37" rx="1" ry="1.5" transform="translate(-48.37 534.58) rotate(-87.93)"/><ellipse class="cls-10" cx="252.84" cy="295.36" rx="1" ry="1.5" transform="translate(-51.47 537.36) rotate(-87.93)"/><ellipse class="cls-10" cx="252.73" cy="298.36" rx="1" ry="1.5" transform="translate(-54.57 540.14) rotate(-87.93)"/><ellipse class="cls-10" cx="249.88" cy="294.26" rx="1" ry="1.5" transform="matrix(0.04, -1, 1, 0.04, -53.22, 533.33)"/><ellipse class="cls-10" cx="249.77" cy="297.25" rx="1" ry="1.5" transform="translate(-56.32 536.11) rotate(-87.93)"/><ellipse class="cls-10" cx="263.69" cy="299.76" rx="1" ry="1.5" transform="matrix(0.04, -1, 1, 0.04, -45.41, 552.43)"/><ellipse class="cls-10" cx="256.02" cy="290.48" rx="1" ry="1.5" transform="translate(-43.53 535.82) rotate(-87.93)"/><ellipse class="cls-10" cx="255.91" cy="293.47" rx="1" ry="1.5" transform="translate(-46.63 538.6) rotate(-87.93)"/><ellipse class="cls-10" cx="255.8" cy="296.47" rx="1" ry="1.5" transform="translate(-49.73 541.38) rotate(-87.93)"/><ellipse class="cls-10" cx="255.69" cy="299.47" rx="1" ry="1.5" transform="translate(-52.83 544.17) rotate(-87.93)"/><ellipse class="cls-10" cx="377.01" cy="513.76" rx="1" ry="1.5" transform="translate(-150.05 871.95) rotate(-87.93)"/><ellipse class="cls-10" cx="376.9" cy="516.76" rx="1" ry="1.5" transform="translate(-153.15 874.73) rotate(-87.93)"/><ellipse class="cls-10" cx="376.8" cy="519.76" rx="1" ry="1.5" transform="matrix(0.04, -1, 1, 0.04, -156.25, 877.52)"/><ellipse class="cls-10" cx="372.98" cy="514.62" rx="1" ry="1.5" transform="matrix(0.04, -1, 1, 0.04, -154.79, 868.75)"/><ellipse class="cls-10" cx="372.87" cy="517.62" rx="1" ry="1.5" transform="translate(-157.89 871.53) rotate(-87.93)"/><ellipse class="cls-10" cx="372.76" cy="520.62" rx="1" ry="1.5" transform="translate(-160.99 874.31) rotate(-87.93)"/><ellipse class="cls-10" cx="365.95" cy="515.37" rx="1" ry="1.5" transform="translate(-162.31 862.44) rotate(-87.93)"/><ellipse class="cls-10" cx="365.84" cy="518.36" rx="1" ry="1.5" transform="translate(-165.41 865.22) rotate(-87.93)"/><ellipse class="cls-10" cx="365.73" cy="521.36" rx="1" ry="1.5" transform="translate(-168.51 868) rotate(-87.93)"/><ellipse class="cls-10" cx="362.88" cy="517.26" rx="1" ry="1.5" transform="matrix(0.04, -1, 1, 0.04, -167.16, 861.19)"/><ellipse class="cls-10" cx="362.77" cy="520.25" rx="1" ry="1.5" transform="translate(-170.26 863.97) rotate(-87.93)"/><ellipse class="cls-10" cx="376.69" cy="522.76" rx="1" ry="1.5" transform="matrix(0.04, -1, 1, 0.04, -159.35, 880.3)"/><ellipse class="cls-10" cx="369.02" cy="513.48" rx="1" ry="1.5" transform="translate(-157.47 863.68) rotate(-87.93)"/><ellipse class="cls-10" cx="368.91" cy="516.47" rx="1" ry="1.5" transform="translate(-160.57 866.47) rotate(-87.93)"/><ellipse class="cls-10" cx="368.8" cy="519.47" rx="1" ry="1.5" transform="translate(-163.67 869.25) rotate(-87.93)"/><ellipse class="cls-10" cx="368.69" cy="522.47" rx="1" ry="1.5" transform="translate(-166.77 872.03) rotate(-87.93)"/><ellipse class="cls-10" cx="451.01" cy="240.76" rx="1" ry="1.5" transform="translate(194.1 682.78) rotate(-87.93)"/><ellipse class="cls-10" cx="450.9" cy="243.76" rx="1" ry="1.5" transform="translate(191 685.56) rotate(-87.93)"/><ellipse class="cls-10" cx="450.8" cy="246.76" rx="1" ry="1.5" transform="matrix(0.04, -1, 1, 0.04, 187.9, 688.34)"/><ellipse class="cls-10" cx="446.98" cy="241.62" rx="1" ry="1.5" transform="matrix(0.04, -1, 1, 0.04, 189.36, 679.57)"/><ellipse class="cls-10" cx="446.87" cy="244.62" rx="1" ry="1.5" transform="translate(186.25 682.35) rotate(-87.93)"/><ellipse class="cls-10" cx="446.76" cy="247.62" rx="1" ry="1.5" transform="translate(183.15 685.13) rotate(-87.93)"/><ellipse class="cls-10" cx="439.95" cy="242.37" rx="1" ry="1.5" transform="translate(181.83 673.26) rotate(-87.93)"/><ellipse class="cls-10" cx="439.84" cy="245.36" rx="1" ry="1.5" transform="translate(178.73 676.04) rotate(-87.93)"/><ellipse class="cls-10" cx="439.73" cy="248.36" rx="1" ry="1.5" transform="translate(175.63 678.82) rotate(-87.93)"/><ellipse class="cls-10" cx="436.88" cy="244.26" rx="1" ry="1.5" transform="matrix(0.04, -1, 1, 0.04, 176.98, 672.01)"/><ellipse class="cls-10" cx="436.77" cy="247.25" rx="1" ry="1.5" transform="translate(173.88 674.8) rotate(-87.93)"/><ellipse class="cls-10" cx="450.69" cy="249.76" rx="1" ry="1.5" transform="matrix(0.04, -1, 1, 0.04, 184.8, 691.12)"/><ellipse class="cls-10" cx="443.02" cy="240.48" rx="1" ry="1.5" transform="translate(186.68 674.51) rotate(-87.93)"/><ellipse class="cls-10" cx="442.91" cy="243.47" rx="1" ry="1.5" transform="translate(183.58 677.29) rotate(-87.93)"/><ellipse class="cls-10" cx="442.8" cy="246.47" rx="1" ry="1.5" transform="translate(180.48 680.07) rotate(-87.93)"/><ellipse class="cls-10" cx="442.69" cy="249.47" rx="1" ry="1.5" transform="translate(177.38 682.85) rotate(-87.93)"/><ellipse class="cls-10" cx="130.01" cy="463.76" rx="1" ry="1.5" transform="translate(-338.15 576.92) rotate(-87.93)"/><ellipse class="cls-10" cx="129.9" cy="466.76" rx="1" ry="1.5" transform="translate(-341.25 579.7) rotate(-87.93)"/><ellipse class="cls-10" cx="129.8" cy="469.76" rx="1" ry="1.5" transform="matrix(0.04, -1, 1, 0.04, -344.35, 582.48)"/><ellipse class="cls-10" cx="125.98" cy="464.62" rx="1" ry="1.5" transform="matrix(0.04, -1, 1, 0.04, -342.89, 573.72)"/><ellipse class="cls-10" cx="125.87" cy="467.62" rx="1" ry="1.5" transform="translate(-345.99 576.5) rotate(-87.93)"/><ellipse class="cls-10" cx="125.76" cy="470.62" rx="1" ry="1.5" transform="translate(-349.09 579.28) rotate(-87.93)"/><ellipse class="cls-10" cx="118.95" cy="465.37" rx="1" ry="1.5" transform="translate(-350.42 567.41) rotate(-87.93)"/><ellipse class="cls-10" cx="118.84" cy="468.36" rx="1" ry="1.5" transform="translate(-353.52 570.19) rotate(-87.93)"/><ellipse class="cls-10" cx="118.73" cy="471.36" rx="1" ry="1.5" transform="translate(-356.62 572.97) rotate(-87.93)"/><ellipse class="cls-10" cx="115.88" cy="467.26" rx="1" ry="1.5" transform="matrix(0.04, -1, 1, 0.04, -355.26, 566.16)"/><ellipse class="cls-10" cx="115.77" cy="470.25" rx="1" ry="1.5" transform="translate(-358.36 568.94) rotate(-87.93)"/><ellipse class="cls-10" cx="129.69" cy="472.76" rx="1" ry="1.5" transform="matrix(0.04, -1, 1, 0.04, -347.45, 585.27)"/><ellipse class="cls-10" cx="122.02" cy="463.48" rx="1" ry="1.5" transform="translate(-345.57 568.65) rotate(-87.93)"/><ellipse class="cls-10" cx="121.91" cy="466.47" rx="1" ry="1.5" transform="translate(-348.67 571.43) rotate(-87.93)"/><ellipse class="cls-10" cx="121.8" cy="469.47" rx="1" ry="1.5" transform="translate(-351.77 574.22) rotate(-87.93)"/><ellipse class="cls-10" cx="121.69" cy="472.47" rx="1" ry="1.5" transform="translate(-354.87 577) rotate(-87.93)"/><line class="cls-85" x1="748.27" y1="392.06" x2="748.27" y2="409.77"/><polygon class="cls-15" points="737.66 394.26 748.38 376.09 758.76 394.46 737.66 394.26"/><polygon class="cls-15" points="737.66 389.21 748.38 371.03 758.76 389.41 737.66 389.21"/><polygon class="cls-15" points="739.48 380.36 748.73 364.68 757.68 380.53 739.48 380.36"/><line class="cls-85" x1="380.27" y1="377.06" x2="380.27" y2="394.77"/><polygon class="cls-15" points="369.66 379.26 380.38 361.09 390.76 379.46 369.66 379.26"/><polygon class="cls-15" points="369.66 374.21 380.38 356.03 390.76 374.41 369.66 374.21"/><polygon class="cls-15" points="371.48 365.36 380.73 349.68 389.68 365.53 371.48 365.36"/><line class="cls-85" x1="406.27" y1="339.06" x2="406.27" y2="356.77"/><polygon class="cls-15" points="395.66 341.26 406.38 323.09 416.76 341.46 395.66 341.26"/><polygon class="cls-15" points="395.66 336.21 406.38 318.03 416.76 336.41 395.66 336.21"/><polygon class="cls-15" points="397.48 327.36 406.73 311.68 415.68 327.53 397.48 327.36"/><line class="cls-85" x1="334.27" y1="452.06" x2="334.27" y2="469.77"/><polygon class="cls-15" points="323.66 454.26 334.38 436.09 344.76 454.46 323.66 454.26"/><polygon class="cls-15" points="323.66 449.21 334.38 431.03 344.76 449.41 323.66 449.21"/><polygon class="cls-15" points="325.48 440.36 334.73 424.68 343.68 440.53 325.48 440.36"/><line class="cls-85" x1="358.27" y1="418.06" x2="358.27" y2="435.77"/><polygon class="cls-15" points="347.66 420.26 358.38 402.09 368.76 420.46 347.66 420.26"/><polygon class="cls-15" points="347.66 415.21 358.38 397.03 368.76 415.41 347.66 415.21"/><polygon class="cls-15" points="349.48 406.36 358.73 390.68 367.68 406.53 349.48 406.36"/><line class="cls-85" x1="368.27" y1="462.06" x2="368.27" y2="479.77"/><polygon class="cls-15" points="357.66 464.26 368.38 446.09 378.76 464.46 357.66 464.26"/><polygon class="cls-15" points="357.66 459.21 368.38 441.03 378.76 459.41 357.66 459.21"/><polygon class="cls-15" points="359.48 450.36 368.73 434.68 377.68 450.53 359.48 450.36"/><line class="cls-85" x1="392.27" y1="428.06" x2="392.27" y2="445.77"/><polygon class="cls-15" points="381.66 430.26 392.38 412.09 402.76 430.46 381.66 430.26"/><polygon class="cls-15" points="381.66 425.21 392.38 407.03 402.76 425.41 381.66 425.21"/><polygon class="cls-15" points="383.48 416.36 392.73 400.68 401.68 416.53 383.48 416.36"/><line class="cls-85" x1="411.27" y1="387.06" x2="411.27" y2="404.77"/><polygon class="cls-15" points="400.66 389.26 411.38 371.09 421.76 389.46 400.66 389.26"/><polygon class="cls-15" points="400.66 384.21 411.38 366.03 421.76 384.41 400.66 384.21"/><polygon class="cls-15" points="402.48 375.36 411.73 359.68 420.68 375.53 402.48 375.36"/><line class="cls-85" x1="799.86" y1="395.84" x2="799.86" y2="413.54"/><polygon class="cls-15" points="789.25 398.04 799.98 379.86 810.35 398.24 789.25 398.04"/><polygon class="cls-15" points="789.25 392.98 799.98 374.81 810.35 393.18 789.25 392.98"/><polygon class="cls-15" points="791.07 384.13 800.32 368.45 809.27 384.31 791.07 384.13"/><line class="cls-85" x1="773.43" y1="421.01" x2="773.43" y2="438.71"/><polygon class="cls-15" points="762.83 423.2 773.55 405.03 783.93 423.41 762.83 423.2"/><polygon class="cls-15" points="762.83 418.15 773.55 399.97 783.93 418.35 762.83 418.15"/><polygon class="cls-15" points="764.64 409.3 773.89 393.62 782.85 409.47 764.64 409.3"/><line class="cls-85" x1="862.29" y1="683.86" x2="862.29" y2="694.43"/><polygon class="cls-15" points="855.95 685.17 862.36 674.32 868.55 685.29 855.95 685.17"/><polygon class="cls-15" points="855.95 682.15 862.36 671.3 868.55 682.27 855.95 682.15"/><polygon class="cls-15" points="857.04 676.87 862.56 667.51 867.91 676.97 857.04 676.87"/><line class="cls-85" x1="893.09" y1="686.11" x2="893.09" y2="696.68"/><polygon class="cls-15" points="886.75 687.43 893.16 676.57 899.35 687.55 886.75 687.43"/><polygon class="cls-15" points="886.75 684.41 893.16 673.55 899.35 684.53 886.75 684.41"/><polygon class="cls-15" points="887.84 679.12 893.36 669.76 898.71 679.23 887.84 679.12"/><line class="cls-85" x1="877.31" y1="701.14" x2="877.31" y2="711.71"/><polygon class="cls-15" points="870.98 702.45 877.38 691.6 883.58 702.57 870.98 702.45"/><polygon class="cls-15" points="870.98 699.43 877.38 688.58 883.58 699.55 870.98 699.43"/><polygon class="cls-15" points="872.06 694.15 877.59 684.79 882.93 694.25 872.06 694.15"/><rect class="cls-78" x="740.88" y="307.77" width="52.55" height="24.6" rx="10.33" transform="translate(-50.92 467.46) rotate(-32.86)"/><ellipse cx="766.58" cy="336.55" rx="4.01" ry="4.1" transform="translate(-59.95 469.78) rotate(-32.86)"/><ellipse cx="782.41" cy="326.32" rx="4.01" ry="4.1" transform="translate(-51.87 476.74) rotate(-32.86)"/><path class="cls-41" d="M749.32,324.5h4a0,0,0,0,1,0,0v4.1a0,0,0,0,1,0,0h-6a0,0,0,0,1,0,0v-2.1A2,2,0,0,1,749.32,324.5Z" transform="translate(-57.13 459.36) rotate(-32.86)"/><rect class="cls-41" x="755.32" y="319.5" width="6.02" height="4.1" rx="1.36" transform="translate(-53.13 462.91) rotate(-32.86)"/><rect class="cls-41" x="761.32" y="315.5" width="6.02" height="4.1" rx="1.36" transform="translate(-50 465.52) rotate(-32.86)"/><rect class="cls-41" x="767.32" y="311.5" width="6.02" height="4.1" rx="1.36" transform="translate(-46.87 468.14) rotate(-32.86)"/><rect class="cls-41" x="773.32" y="307.5" width="6.02" height="4.1" rx="1.36" transform="translate(-43.74 470.75) rotate(-32.86)"/><rect class="cls-41" x="779.32" y="303.5" width="6.02" height="4.1" rx="1.36" transform="translate(-40.61 473.37) rotate(-32.86)"/><text class="cls-86" transform="translate(749.58 337.08) rotate(-32.86) scale(0.98 1)">400</text><line class="cls-33" x1="684.85" y1="440.01" x2="684.35" y2="422.51"/><path class="cls-87" d="M683.26,416.54l-8.16,8.92s9.75,7.55,19.28-1.1c-6-4.06-10.83-7.72-10.83-7.72"/><line class="cls-33" x1="639.85" y1="429.01" x2="639.35" y2="411.51"/><path class="cls-88" d="M638.26,405.54l-8.16,8.92s9.75,7.55,19.28-1.1c-6-4.06-10.83-7.72-10.83-7.72"/><line class="cls-57" x1="646.1" y1="434.51" x2="646.1" y2="432.26"/><line class="cls-57" x1="643.1" y1="434.01" x2="643.1" y2="431.76"/><polygon class="cls-89" points="642.35 431.51 645.35 433.01 653.85 431.51 657.35 426.01 653.85 425.51 649.85 430.01 642.35 431.51"/><polyline class="cls-57" points="650.1 434.26 651.31 431.96 653.85 431.51 655.12 433.26"/><line class="cls-57" x1="660.1" y1="437.51" x2="660.1" y2="435.26"/><line class="cls-57" x1="657.1" y1="437.01" x2="657.1" y2="434.76"/><polygon class="cls-88" points="656.35 434.51 659.35 436.01 667.85 434.51 671.35 429.01 667.85 428.51 663.85 433.01 656.35 434.51"/><polyline class="cls-57" points="664.1 437.26 665.31 434.96 667.85 434.51 669.12 436.26"/></g></g></svg>