<svg width="46" height="44" viewBox="0 0 46 44" fill="none" xmlns="http://www.w3.org/2000/svg">
<path d="M39.3474 11.0124C38.3711 9.74513 37.1085 8.72722 35.6629 8.04207C34.2173 7.35693 32.63 7.02405 31.031 7.07072C29.4729 7.10469 27.9458 7.51267 26.5783 8.26029C25.2109 9.0079 24.0431 10.0732 23.1735 11.3666C22.9403 11.711 22.7152 12.0677 22.5003 12.4334C22.2853 12.0677 22.0604 11.711 21.8271 11.3666C20.9575 10.0732 19.7898 9.00785 18.4224 8.26021C17.0549 7.51257 15.5278 7.10457 13.9697 7.07058C12.371 7.02636 10.7845 7.36034 9.33929 8.04532C7.89412 8.73031 6.63116 9.74693 5.65326 11.0124C2.92605 14.567 3.04222 19.5024 5.94888 23.5864C11.2397 31.0197 21.7035 37.5574 22.146 37.8317C22.2524 37.8977 22.3751 37.9327 22.5003 37.9327C22.6255 37.9327 22.7482 37.8977 22.8546 37.8317C23.2972 37.5571 33.7608 31.0194 39.0515 23.5861C41.9584 19.5024 42.0746 14.567 39.3474 11.0124Z" fill="white"/>
<rect x="1" y="1" width="44" height="42" rx="9" stroke="white" stroke-width="2"/>
</svg>
