<svg width="43" height="43" viewBox="0 0 43 43" fill="none" xmlns="http://www.w3.org/2000/svg">
<path d="M38.3474 10.0124C37.3711 8.74513 36.1085 7.72722 34.6629 7.04207C33.2173 6.35693 31.63 6.02405 30.031 6.07072C28.4729 6.10469 26.9458 6.51267 25.5783 7.26029C24.2109 8.0079 23.0431 9.07325 22.1735 10.3666C21.9403 10.711 21.7152 11.0677 21.5003 11.4334C21.2853 11.0677 21.0604 10.711 20.8271 10.3666C19.9575 9.07322 18.7898 8.00785 17.4224 7.26021C16.0549 6.51257 14.5278 6.10457 12.9697 6.07058C11.371 6.02636 9.78446 6.36034 8.33929 7.04532C6.89412 7.73031 5.63116 8.74693 4.65326 10.0124C1.92605 13.567 2.04222 18.5024 4.94888 22.5864C10.2397 30.0197 20.7035 36.5574 21.146 36.8317C21.2524 36.8977 21.3751 36.9327 21.5003 36.9327C21.6255 36.9327 21.7482 36.8977 21.8546 36.8317C22.2972 36.5571 32.7608 30.0194 38.0515 22.5861C40.9584 18.5024 41.0746 13.567 38.3474 10.0124Z" fill="#333D29"/>
</svg>
