<svg width="37" height="37" viewBox="0 0 37 37" fill="none" xmlns="http://www.w3.org/2000/svg">
<path d="M28.411 7.02103H12.6155L13.9391 3.78557C14.2206 3.09516 14.0147 2.30571 13.4332 1.83923C12.851 1.37306 12.0317 1.3472 11.4192 1.77278L0.723798 9.20167C0.255282 9.52707 -0.0167406 10.0679 0.000799464 10.6378C0.0182639 11.2073 0.322947 11.7299 0.810515 12.0258L11.9942 18.8167C12.6305 19.2029 13.4443 19.1262 13.9963 18.6278C14.5491 18.1295 14.709 17.3189 14.3908 16.6468L12.9209 13.5371H28.411C29.5541 13.5371 30.4839 14.4849 30.4839 15.6278V26.9572C30.4839 28.1002 29.5541 29.0129 28.411 29.0129H11.2686C9.73946 29.0129 8.49979 30.2525 8.49979 31.7816V32.7601C8.49979 34.2894 9.73946 35.529 11.2686 35.529H28.411C33.147 35.529 36.9999 31.6935 36.9999 26.9571V15.6279C37 10.8916 33.147 7.02103 28.411 7.02103Z" fill="#333D29"/>
</svg>
